<svg xmlns="http://www.w3.org/2000/svg" xmlns:xlink="http://www.w3.org/1999/xlink" width="700" zoomAndPan="magnify" viewBox="0 0 525 290.999983" height="388" preserveAspectRatio="xMidYMid meet" version="1.0"><defs><g/></defs><g fill="#0e1446" fill-opacity="1"><g transform="translate(0.0000153351, 65.166465)"><g><path d="M 60.6875 -48.671875 L 60.6875 0 L 47.15625 0 L 47.15625 -26.859375 L 37.96875 0 L 26.65625 0 L 17.40625 -27.0625 L 17.40625 0 L 3.859375 0 L 3.859375 -48.671875 L 20.234375 -48.671875 L 32.453125 -17.046875 L 44.390625 -48.671875 Z M 60.6875 -48.671875 "/></g></g></g><g fill="#0e1446" fill-opacity="1"><g transform="translate(66.209133, 65.166465)"><g><path d="M 34.65625 -7.9375 L 17.40625 -7.9375 L 14.78125 0 L 0.546875 0 L 18.296875 -48.671875 L 33.90625 -48.671875 L 51.578125 0 L 37.28125 0 Z M 31.28125 -18.296875 L 26.03125 -34.046875 L 20.859375 -18.296875 Z M 31.28125 -18.296875 "/></g></g></g><g fill="#0e1446" fill-opacity="1"><g transform="translate(119.991106, 65.166465)"><g><path d="M 40.53125 -48.671875 L 40.53125 -37.90625 L 27.546875 -37.90625 L 27.546875 0 L 14.015625 0 L 14.015625 -37.90625 L 1.171875 -37.90625 L 1.171875 -48.671875 Z M 40.53125 -48.671875 "/></g></g></g><g fill="#0e1446" fill-opacity="1"><g transform="translate(163.348088, 65.166465)"><g><path d="M 17.40625 -37.84375 L 17.40625 -29.890625 L 32.9375 -29.890625 L 32.9375 -19.609375 L 17.40625 -19.609375 L 17.40625 -10.84375 L 35 -10.84375 L 35 0 L 3.859375 0 L 3.859375 -48.671875 L 35 -48.671875 L 35 -37.84375 Z M 17.40625 -37.84375 "/></g></g></g><g fill="#0e1446" fill-opacity="1"><g transform="translate(202.838843, 65.166465)"><g><path d="M 60.6875 -48.671875 L 60.6875 0 L 47.15625 0 L 47.15625 -26.859375 L 37.96875 0 L 26.65625 0 L 17.40625 -27.0625 L 17.40625 0 L 3.859375 0 L 3.859375 -48.671875 L 20.234375 -48.671875 L 32.453125 -17.046875 L 44.390625 -48.671875 Z M 60.6875 -48.671875 "/></g></g></g><g fill="#0e1446" fill-opacity="1"><g transform="translate(269.047949, 65.166465)"><g><path d="M 34.65625 -7.9375 L 17.40625 -7.9375 L 14.78125 0 L 0.546875 0 L 18.296875 -48.671875 L 33.90625 -48.671875 L 51.578125 0 L 37.28125 0 Z M 31.28125 -18.296875 L 26.03125 -34.046875 L 20.859375 -18.296875 Z M 34.53125 -58.28125 L 17.265625 -51.515625 L 17.265625 -60.703125 L 34.53125 -68.5 Z M 34.53125 -58.28125 "/></g></g></g><g fill="#0e1446" fill-opacity="1"><g transform="translate(322.829922, 65.166465)"><g><path d="M 40.53125 -48.671875 L 40.53125 -37.90625 L 27.546875 -37.90625 L 27.546875 0 L 14.015625 0 L 14.015625 -37.90625 L 1.171875 -37.90625 L 1.171875 -48.671875 Z M 40.53125 -48.671875 "/></g></g></g><g fill="#0e1446" fill-opacity="1"><g transform="translate(366.186915, 65.166465)"><g><path d="M 17.40625 -48.671875 L 17.40625 0 L 3.859375 0 L 3.859375 -48.671875 Z M 17.40625 -48.671875 "/></g></g></g><g fill="#0e1446" fill-opacity="1"><g transform="translate(389.108157, 65.166465)"><g><path d="M 2.203125 -24.4375 C 2.203125 -29.226562 3.203125 -33.5 5.203125 -37.25 C 7.210938 -41 10.054688 -43.921875 13.734375 -46.015625 C 17.421875 -48.109375 21.65625 -49.15625 26.4375 -49.15625 C 32.519531 -49.15625 37.628906 -47.53125 41.765625 -44.28125 C 45.910156 -41.039062 48.582031 -36.640625 49.78125 -31.078125 L 35.21875 -31.078125 C 34.34375 -32.910156 33.132812 -34.3125 31.59375 -35.28125 C 30.050781 -36.25 28.265625 -36.734375 26.234375 -36.734375 C 23.109375 -36.734375 20.613281 -35.613281 18.75 -33.375 C 16.882812 -31.144531 15.953125 -28.164062 15.953125 -24.4375 C 15.953125 -20.664062 16.882812 -17.660156 18.75 -15.421875 C 20.613281 -13.191406 23.109375 -12.078125 26.234375 -12.078125 C 28.265625 -12.078125 30.050781 -12.5625 31.59375 -13.53125 C 33.132812 -14.5 34.34375 -15.90625 35.21875 -17.75 L 49.78125 -17.75 C 48.582031 -12.175781 45.910156 -7.765625 41.765625 -4.515625 C 37.628906 -1.273438 32.519531 0.34375 26.4375 0.34375 C 21.65625 0.34375 17.421875 -0.703125 13.734375 -2.796875 C 10.054688 -4.890625 7.210938 -7.8125 5.203125 -11.5625 C 3.203125 -15.3125 2.203125 -19.601562 2.203125 -24.4375 Z M 2.203125 -24.4375 "/></g></g></g><g fill="#0e1446" fill-opacity="1"><g transform="translate(443.097266, 65.166465)"><g><path d="M 27.203125 0.484375 C 22.648438 0.484375 18.460938 -0.582031 14.640625 -2.71875 C 10.816406 -4.863281 7.785156 -7.832031 5.546875 -11.625 C 3.316406 -15.425781 2.203125 -19.722656 2.203125 -24.515625 C 2.203125 -29.296875 3.316406 -33.582031 5.546875 -37.375 C 7.785156 -41.175781 10.816406 -44.132812 14.640625 -46.25 C 18.460938 -48.375 22.648438 -49.4375 27.203125 -49.4375 C 31.804688 -49.4375 36.003906 -48.375 39.796875 -46.25 C 43.597656 -44.132812 46.601562 -41.175781 48.8125 -37.375 C 51.019531 -33.582031 52.125 -29.296875 52.125 -24.515625 C 52.125 -19.722656 51.019531 -15.425781 48.8125 -11.625 C 46.601562 -7.832031 43.585938 -4.863281 39.765625 -2.71875 C 35.953125 -0.582031 31.765625 0.484375 27.203125 0.484375 Z M 27.203125 -12.078125 C 30.660156 -12.078125 33.390625 -13.203125 35.390625 -15.453125 C 37.390625 -17.710938 38.390625 -20.734375 38.390625 -24.515625 C 38.390625 -28.378906 37.390625 -31.425781 35.390625 -33.65625 C 33.390625 -35.894531 30.660156 -37.015625 27.203125 -37.015625 C 23.703125 -37.015625 20.960938 -35.894531 18.984375 -33.65625 C 17.003906 -31.425781 16.015625 -28.378906 16.015625 -24.515625 C 16.015625 -20.691406 17.003906 -17.660156 18.984375 -15.421875 C 20.960938 -13.191406 23.703125 -12.078125 27.203125 -12.078125 Z M 27.203125 -12.078125 "/></g></g></g><path fill="#0e1446" d="M 12.007812 73.234375 L 420.730469 73.234375 C 423.914062 73.234375 426.96875 74.5 429.222656 76.75 C 431.472656 79 432.738281 82.054688 432.738281 85.238281 L 432.738281 133.976562 C 432.738281 137.160156 431.472656 140.210938 429.222656 142.460938 C 426.96875 144.714844 423.914062 145.976562 420.730469 145.976562 L 12.007812 145.976562 C 5.375 145.976562 0 140.605469 0 133.976562 L 0 85.238281 C 0 78.609375 5.375 73.234375 12.007812 73.234375 Z M 12.007812 73.234375 " fill-opacity="0.63" fill-rule="nonzero"/><g fill="#ffffff" fill-opacity="1"><g transform="translate(0.0000153351, 127.118695)"><g><path d="M 1.671875 -18.4375 C 1.671875 -22.050781 2.425781 -25.269531 3.9375 -28.09375 C 5.445312 -30.925781 7.585938 -33.132812 10.359375 -34.71875 C 13.140625 -36.300781 16.335938 -37.09375 19.953125 -37.09375 C 24.535156 -37.09375 28.390625 -35.867188 31.515625 -33.421875 C 34.640625 -30.972656 36.65625 -27.644531 37.5625 -23.4375 L 26.5625 -23.4375 C 25.90625 -24.832031 24.992188 -25.894531 23.828125 -26.625 C 22.671875 -27.351562 21.328125 -27.71875 19.796875 -27.71875 C 17.429688 -27.71875 15.546875 -26.875 14.140625 -25.1875 C 12.734375 -23.5 12.03125 -21.25 12.03125 -18.4375 C 12.03125 -15.59375 12.734375 -13.328125 14.140625 -11.640625 C 15.546875 -9.953125 17.429688 -9.109375 19.796875 -9.109375 C 21.328125 -9.109375 22.671875 -9.472656 23.828125 -10.203125 C 24.992188 -10.929688 25.90625 -11.992188 26.5625 -13.390625 L 37.5625 -13.390625 C 36.65625 -9.179688 34.640625 -5.851562 31.515625 -3.40625 C 28.390625 -0.957031 24.535156 0.265625 19.953125 0.265625 C 16.335938 0.265625 13.140625 -0.523438 10.359375 -2.109375 C 7.585938 -3.691406 5.445312 -5.894531 3.9375 -8.71875 C 2.425781 -11.550781 1.671875 -14.789062 1.671875 -18.4375 Z M 1.671875 -18.4375 "/></g></g></g><g fill="#ffffff" fill-opacity="1"><g transform="translate(40.730595, 127.118695)"><g><path d="M 20.53125 0.359375 C 17.09375 0.359375 13.929688 -0.445312 11.046875 -2.0625 C 8.160156 -3.675781 5.875 -5.914062 4.1875 -8.78125 C 2.507812 -11.644531 1.671875 -14.882812 1.671875 -18.5 C 1.671875 -22.101562 2.507812 -25.335938 4.1875 -28.203125 C 5.875 -31.066406 8.160156 -33.296875 11.046875 -34.890625 C 13.929688 -36.492188 17.09375 -37.296875 20.53125 -37.296875 C 24 -37.296875 27.164062 -36.492188 30.03125 -34.890625 C 32.894531 -33.296875 35.160156 -31.066406 36.828125 -28.203125 C 38.492188 -25.335938 39.328125 -22.101562 39.328125 -18.5 C 39.328125 -14.882812 38.492188 -11.644531 36.828125 -8.78125 C 35.160156 -5.914062 32.882812 -3.675781 30 -2.0625 C 27.125 -0.445312 23.96875 0.359375 20.53125 0.359375 Z M 20.53125 -9.109375 C 23.132812 -9.109375 25.191406 -9.957031 26.703125 -11.65625 C 28.210938 -13.363281 28.96875 -15.644531 28.96875 -18.5 C 28.96875 -21.414062 28.210938 -23.710938 26.703125 -25.390625 C 25.191406 -27.078125 23.132812 -27.921875 20.53125 -27.921875 C 17.882812 -27.921875 15.8125 -27.078125 14.3125 -25.390625 C 12.820312 -23.710938 12.078125 -21.414062 12.078125 -18.5 C 12.078125 -15.613281 12.820312 -13.328125 14.3125 -11.640625 C 15.8125 -9.953125 17.882812 -9.109375 20.53125 -9.109375 Z M 20.53125 -9.109375 "/></g></g></g><g fill="#ffffff" fill-opacity="1"><g transform="translate(82.971645, 127.118695)"><g><path d="M 45.796875 -36.71875 L 45.796875 0 L 35.578125 0 L 35.578125 -20.265625 L 28.65625 0 L 20.109375 0 L 13.125 -20.421875 L 13.125 0 L 2.921875 0 L 2.921875 -36.71875 L 15.265625 -36.71875 L 24.484375 -12.859375 L 33.5 -36.71875 Z M 45.796875 -36.71875 "/></g></g></g><g fill="#ffffff" fill-opacity="1"><g transform="translate(132.921281, 127.118695)"><g><path d="M 31.9375 -24.484375 C 31.9375 -22.265625 31.421875 -20.242188 30.390625 -18.421875 C 29.367188 -16.597656 27.820312 -15.132812 25.75 -14.03125 C 23.6875 -12.9375 21.164062 -12.390625 18.1875 -12.390625 L 13.125 -12.390625 L 13.125 0 L 2.921875 0 L 2.921875 -36.71875 L 18.1875 -36.71875 C 21.132812 -36.71875 23.640625 -36.195312 25.703125 -35.15625 C 27.773438 -34.113281 29.332031 -32.671875 30.375 -30.828125 C 31.414062 -28.992188 31.9375 -26.878906 31.9375 -24.484375 Z M 17.1875 -20.53125 C 20.070312 -20.53125 21.515625 -21.847656 21.515625 -24.484375 C 21.515625 -27.160156 20.070312 -28.5 17.1875 -28.5 L 13.125 -28.5 L 13.125 -20.53125 Z M 17.1875 -20.53125 "/></g></g></g><g fill="#ffffff" fill-opacity="1"><g transform="translate(167.297492, 127.118695)"><g><path d="M 12.921875 -36.71875 L 12.921875 -15.421875 C 12.921875 -13.441406 13.378906 -11.910156 14.296875 -10.828125 C 15.222656 -9.753906 16.625 -9.21875 18.5 -9.21875 C 20.375 -9.21875 21.785156 -9.765625 22.734375 -10.859375 C 23.691406 -11.953125 24.171875 -13.472656 24.171875 -15.421875 L 24.171875 -36.71875 L 34.375 -36.71875 L 34.375 -15.421875 C 34.375 -12.046875 33.660156 -9.171875 32.234375 -6.796875 C 30.816406 -4.421875 28.882812 -2.632812 26.4375 -1.4375 C 23.988281 -0.238281 21.269531 0.359375 18.28125 0.359375 C 15.300781 0.359375 12.632812 -0.238281 10.28125 -1.4375 C 7.9375 -2.632812 6.097656 -4.410156 4.765625 -6.765625 C 3.429688 -9.128906 2.765625 -12.015625 2.765625 -15.421875 L 2.765625 -36.71875 Z M 12.921875 -36.71875 "/></g></g></g><g fill="#ffffff" fill-opacity="1"><g transform="translate(205.632152, 127.118695)"><g><path d="M 30.578125 -36.71875 L 30.578125 -28.59375 L 20.78125 -28.59375 L 20.78125 0 L 10.578125 0 L 10.578125 -28.59375 L 0.890625 -28.59375 L 0.890625 -36.71875 Z M 30.578125 -36.71875 "/></g></g></g><g fill="#ffffff" fill-opacity="1"><g transform="translate(238.341631, 127.118695)"><g><path d="M 20.53125 0.359375 C 17.09375 0.359375 13.929688 -0.445312 11.046875 -2.0625 C 8.160156 -3.675781 5.875 -5.914062 4.1875 -8.78125 C 2.507812 -11.644531 1.671875 -14.882812 1.671875 -18.5 C 1.671875 -22.101562 2.507812 -25.335938 4.1875 -28.203125 C 5.875 -31.066406 8.160156 -33.296875 11.046875 -34.890625 C 13.929688 -36.492188 17.09375 -37.296875 20.53125 -37.296875 C 24 -37.296875 27.164062 -36.492188 30.03125 -34.890625 C 32.894531 -33.296875 35.160156 -31.066406 36.828125 -28.203125 C 38.492188 -25.335938 39.328125 -22.101562 39.328125 -18.5 C 39.328125 -14.882812 38.492188 -11.644531 36.828125 -8.78125 C 35.160156 -5.914062 32.882812 -3.675781 30 -2.0625 C 27.125 -0.445312 23.96875 0.359375 20.53125 0.359375 Z M 20.53125 -9.109375 C 23.132812 -9.109375 25.191406 -9.957031 26.703125 -11.65625 C 28.210938 -13.363281 28.96875 -15.644531 28.96875 -18.5 C 28.96875 -21.414062 28.210938 -23.710938 26.703125 -25.390625 C 25.191406 -27.078125 23.132812 -27.921875 20.53125 -27.921875 C 17.882812 -27.921875 15.8125 -27.078125 14.3125 -25.390625 C 12.820312 -23.710938 12.078125 -21.414062 12.078125 -18.5 C 12.078125 -15.613281 12.820312 -13.328125 14.3125 -11.640625 C 15.8125 -9.953125 17.882812 -9.109375 20.53125 -9.109375 Z M 26.890625 -43.96875 L 13.859375 -38.859375 L 13.859375 -45.78125 L 26.890625 -51.671875 Z M 26.890625 -43.96875 "/></g></g></g><g fill="#ffffff" fill-opacity="1"><g transform="translate(280.582673, 127.118695)"><g><path d="M 13.125 -7.8125 L 24.53125 -7.8125 L 24.53125 0 L 2.921875 0 L 2.921875 -36.71875 L 13.125 -36.71875 Z M 13.125 -7.8125 "/></g></g></g><g fill="#ffffff" fill-opacity="1"><g transform="translate(307.406556, 127.118695)"><g><path d="M 20.53125 0.359375 C 17.09375 0.359375 13.929688 -0.445312 11.046875 -2.0625 C 8.160156 -3.675781 5.875 -5.914062 4.1875 -8.78125 C 2.507812 -11.644531 1.671875 -14.882812 1.671875 -18.5 C 1.671875 -22.101562 2.507812 -25.335938 4.1875 -28.203125 C 5.875 -31.066406 8.160156 -33.296875 11.046875 -34.890625 C 13.929688 -36.492188 17.09375 -37.296875 20.53125 -37.296875 C 24 -37.296875 27.164062 -36.492188 30.03125 -34.890625 C 32.894531 -33.296875 35.160156 -31.066406 36.828125 -28.203125 C 38.492188 -25.335938 39.328125 -22.101562 39.328125 -18.5 C 39.328125 -14.882812 38.492188 -11.644531 36.828125 -8.78125 C 35.160156 -5.914062 32.882812 -3.675781 30 -2.0625 C 27.125 -0.445312 23.96875 0.359375 20.53125 0.359375 Z M 20.53125 -9.109375 C 23.132812 -9.109375 25.191406 -9.957031 26.703125 -11.65625 C 28.210938 -13.363281 28.96875 -15.644531 28.96875 -18.5 C 28.96875 -21.414062 28.210938 -23.710938 26.703125 -25.390625 C 25.191406 -27.078125 23.132812 -27.921875 20.53125 -27.921875 C 17.882812 -27.921875 15.8125 -27.078125 14.3125 -25.390625 C 12.820312 -23.710938 12.078125 -21.414062 12.078125 -18.5 C 12.078125 -15.613281 12.820312 -13.328125 14.3125 -11.640625 C 15.8125 -9.953125 17.882812 -9.109375 20.53125 -9.109375 Z M 20.53125 -9.109375 "/></g></g></g><g fill="#ffffff" fill-opacity="1"><g transform="translate(349.647619, 127.118695)"><g><path d="M 26.359375 -24.640625 C 25.765625 -25.609375 24.957031 -26.351562 23.9375 -26.875 C 22.914062 -27.394531 21.707031 -27.65625 20.3125 -27.65625 C 17.75 -27.65625 15.726562 -26.820312 14.25 -25.15625 C 12.769531 -23.488281 12.03125 -21.25 12.03125 -18.4375 C 12.03125 -15.28125 12.820312 -12.875 14.40625 -11.21875 C 15.988281 -9.570312 18.289062 -8.75 21.3125 -8.75 C 24.882812 -8.75 27.4375 -10.363281 28.96875 -13.59375 L 18.703125 -13.59375 L 18.703125 -20.9375 L 37.765625 -20.9375 L 37.765625 -11.046875 C 36.960938 -9.097656 35.789062 -7.269531 34.25 -5.5625 C 32.707031 -3.863281 30.753906 -2.46875 28.390625 -1.375 C 26.023438 -0.28125 23.332031 0.265625 20.3125 0.265625 C 16.632812 0.265625 13.378906 -0.523438 10.546875 -2.109375 C 7.710938 -3.691406 5.523438 -5.894531 3.984375 -8.71875 C 2.441406 -11.550781 1.671875 -14.789062 1.671875 -18.4375 C 1.671875 -22.050781 2.441406 -25.269531 3.984375 -28.09375 C 5.523438 -30.925781 7.703125 -33.132812 10.515625 -34.71875 C 13.335938 -36.300781 16.585938 -37.09375 20.265625 -37.09375 C 24.878906 -37.09375 28.695312 -35.976562 31.71875 -33.75 C 34.738281 -31.53125 36.613281 -28.492188 37.34375 -24.640625 Z M 26.359375 -24.640625 "/></g></g></g><g fill="#ffffff" fill-opacity="1"><g transform="translate(390.326104, 127.118695)"><g><path d="M 20.53125 0.359375 C 17.09375 0.359375 13.929688 -0.445312 11.046875 -2.0625 C 8.160156 -3.675781 5.875 -5.914062 4.1875 -8.78125 C 2.507812 -11.644531 1.671875 -14.882812 1.671875 -18.5 C 1.671875 -22.101562 2.507812 -25.335938 4.1875 -28.203125 C 5.875 -31.066406 8.160156 -33.296875 11.046875 -34.890625 C 13.929688 -36.492188 17.09375 -37.296875 20.53125 -37.296875 C 24 -37.296875 27.164062 -36.492188 30.03125 -34.890625 C 32.894531 -33.296875 35.160156 -31.066406 36.828125 -28.203125 C 38.492188 -25.335938 39.328125 -22.101562 39.328125 -18.5 C 39.328125 -14.882812 38.492188 -11.644531 36.828125 -8.78125 C 35.160156 -5.914062 32.882812 -3.675781 30 -2.0625 C 27.125 -0.445312 23.96875 0.359375 20.53125 0.359375 Z M 20.53125 -9.109375 C 23.132812 -9.109375 25.191406 -9.957031 26.703125 -11.65625 C 28.210938 -13.363281 28.96875 -15.644531 28.96875 -18.5 C 28.96875 -21.414062 28.210938 -23.710938 26.703125 -25.390625 C 25.191406 -27.078125 23.132812 -27.921875 20.53125 -27.921875 C 17.882812 -27.921875 15.8125 -27.078125 14.3125 -25.390625 C 12.820312 -23.710938 12.078125 -21.414062 12.078125 -18.5 C 12.078125 -15.613281 12.820312 -13.328125 14.3125 -11.640625 C 15.8125 -9.953125 17.882812 -9.109375 20.53125 -9.109375 Z M 20.53125 -9.109375 "/></g></g></g><g fill="#0e1446" fill-opacity="1"><g transform="translate(0.0000153351, 186.07754)"><g><path d="M 8.875 -2.546875 L 3.640625 -2.546875 L 2.75 0 L 0.609375 0 L 5.078125 -12.5 L 7.453125 -12.5 L 11.921875 0 L 9.765625 0 Z M 8.296875 -4.21875 L 6.265625 -10.015625 L 4.21875 -4.21875 Z M 8.296875 -4.21875 "/></g></g></g><g fill="#0e1446" fill-opacity="1"><g transform="translate(12.945352, 186.07754)"><g><path d="M 11.59375 0 L 9.546875 0 L 3.390625 -9.3125 L 3.390625 0 L 1.34375 0 L 1.34375 -12.5 L 3.390625 -12.5 L 9.546875 -3.203125 L 9.546875 -12.5 L 11.59375 -12.5 Z M 11.59375 0 "/></g></g></g><g fill="#0e1446" fill-opacity="1"><g transform="translate(26.3216, 186.07754)"><g><path d="M 8.875 -2.546875 L 3.640625 -2.546875 L 2.75 0 L 0.609375 0 L 5.078125 -12.5 L 7.453125 -12.5 L 11.921875 0 L 9.765625 0 Z M 8.296875 -4.21875 L 6.265625 -10.015625 L 4.21875 -4.21875 Z M 8.296875 -4.21875 "/></g></g></g><g fill="#0e1446" fill-opacity="1"><g transform="translate(39.266938, 186.07754)"><g><path d="M 3.390625 -1.65625 L 7.609375 -1.65625 L 7.609375 0 L 1.34375 0 L 1.34375 -12.484375 L 3.390625 -12.484375 Z M 3.390625 -1.65625 "/></g></g></g><g fill="#0e1446" fill-opacity="1"><g transform="translate(47.669795, 186.07754)"><g><path d="M 3.390625 -12.484375 L 3.390625 0 L 1.34375 0 L 1.34375 -12.484375 Z M 4.21875 -15.15625 L 0.25 -13.203125 L 0.25 -14.703125 L 4.21875 -16.90625 Z M 4.21875 -15.15625 "/></g></g></g><g fill="#0e1446" fill-opacity="1"><g transform="translate(52.840856, 186.07754)"><g><path d="M 9.40625 -12.484375 L 9.40625 -10.8125 L 6.09375 -10.8125 L 6.09375 0 L 4.046875 0 L 4.046875 -10.8125 L 0.703125 -10.8125 L 0.703125 -12.484375 Z M 9.40625 -12.484375 "/></g></g></g><g fill="#0e1446" fill-opacity="1"><g transform="translate(63.398254, 186.07754)"><g><path d="M 3.390625 -12.484375 L 3.390625 0 L 1.34375 0 L 1.34375 -12.484375 Z M 3.390625 -12.484375 "/></g></g></g><g fill="#0e1446" fill-opacity="1"><g transform="translate(68.569315, 186.07754)"><g><path d="M 0.671875 -6.265625 C 0.671875 -7.484375 0.953125 -8.578125 1.515625 -9.546875 C 2.085938 -10.515625 2.859375 -11.269531 3.828125 -11.8125 C 4.804688 -12.363281 5.875 -12.640625 7.03125 -12.640625 C 8.363281 -12.640625 9.546875 -12.3125 10.578125 -11.65625 C 11.617188 -11.007812 12.375 -10.085938 12.84375 -8.890625 L 10.375 -8.890625 C 10.050781 -9.546875 9.601562 -10.035156 9.03125 -10.359375 C 8.457031 -10.679688 7.789062 -10.84375 7.03125 -10.84375 C 6.207031 -10.84375 5.472656 -10.65625 4.828125 -10.28125 C 4.179688 -9.914062 3.675781 -9.382812 3.3125 -8.6875 C 2.945312 -7.988281 2.765625 -7.179688 2.765625 -6.265625 C 2.765625 -5.347656 2.945312 -4.539062 3.3125 -3.84375 C 3.675781 -3.144531 4.179688 -2.609375 4.828125 -2.234375 C 5.472656 -1.859375 6.207031 -1.671875 7.03125 -1.671875 C 7.789062 -1.671875 8.457031 -1.832031 9.03125 -2.15625 C 9.601562 -2.476562 10.050781 -2.96875 10.375 -3.625 L 12.84375 -3.625 C 12.375 -2.425781 11.617188 -1.503906 10.578125 -0.859375 C 9.546875 -0.210938 8.363281 0.109375 7.03125 0.109375 C 5.863281 0.109375 4.796875 -0.160156 3.828125 -0.703125 C 2.859375 -1.253906 2.085938 -2.015625 1.515625 -2.984375 C 0.953125 -3.953125 0.671875 -5.046875 0.671875 -6.265625 Z M 0.671875 -6.265625 "/></g></g></g><g fill="#0e1446" fill-opacity="1"><g transform="translate(82.879197, 186.07754)"><g><path d="M 7.03125 0.125 C 5.875 0.125 4.804688 -0.144531 3.828125 -0.6875 C 2.859375 -1.238281 2.085938 -2 1.515625 -2.96875 C 0.953125 -3.945312 0.671875 -5.046875 0.671875 -6.265625 C 0.671875 -7.484375 0.953125 -8.578125 1.515625 -9.546875 C 2.085938 -10.515625 2.859375 -11.269531 3.828125 -11.8125 C 4.804688 -12.363281 5.875 -12.640625 7.03125 -12.640625 C 8.207031 -12.640625 9.28125 -12.363281 10.25 -11.8125 C 11.226562 -11.269531 12 -10.515625 12.5625 -9.546875 C 13.125 -8.578125 13.40625 -7.484375 13.40625 -6.265625 C 13.40625 -5.046875 13.125 -3.945312 12.5625 -2.96875 C 12 -2 11.226562 -1.238281 10.25 -0.6875 C 9.28125 -0.144531 8.207031 0.125 7.03125 0.125 Z M 7.03125 -1.65625 C 7.863281 -1.65625 8.601562 -1.84375 9.25 -2.21875 C 9.894531 -2.59375 10.398438 -3.128906 10.765625 -3.828125 C 11.128906 -4.535156 11.3125 -5.347656 11.3125 -6.265625 C 11.3125 -7.179688 11.128906 -7.988281 10.765625 -8.6875 C 10.398438 -9.382812 9.894531 -9.914062 9.25 -10.28125 C 8.601562 -10.65625 7.863281 -10.84375 7.03125 -10.84375 C 6.207031 -10.84375 5.472656 -10.65625 4.828125 -10.28125 C 4.179688 -9.914062 3.675781 -9.382812 3.3125 -8.6875 C 2.945312 -7.988281 2.765625 -7.179688 2.765625 -6.265625 C 2.765625 -5.347656 2.945312 -4.535156 3.3125 -3.828125 C 3.675781 -3.128906 4.179688 -2.59375 4.828125 -2.21875 C 5.472656 -1.84375 6.207031 -1.65625 7.03125 -1.65625 Z M 7.03125 -1.65625 "/></g></g></g><g fill="#0e1446" fill-opacity="1"><g transform="translate(97.38658, 186.07754)"><g/></g></g><g fill="#0e1446" fill-opacity="1"><g transform="translate(102.48582, 186.07754)"><g><path d="M 5.71875 -16.34375 L 7 -16.34375 L 7 5.4375 L 5.71875 5.4375 Z M 5.71875 -16.34375 "/></g></g></g><g fill="#0e1446" fill-opacity="1"><g transform="translate(115.637612, 186.07754)"><g/></g></g><g fill="#0e1446" fill-opacity="1"><g transform="translate(120.736853, 186.07754)"><g><path d="M 8.875 -2.546875 L 3.640625 -2.546875 L 2.75 0 L 0.609375 0 L 5.078125 -12.5 L 7.453125 -12.5 L 11.921875 0 L 9.765625 0 Z M 8.296875 -4.21875 L 6.265625 -10.015625 L 4.21875 -4.21875 Z M 8.296875 -4.21875 "/></g></g></g><g fill="#0e1446" fill-opacity="1"><g transform="translate(133.682188, 186.07754)"><g><path d="M 5.421875 -12.484375 C 6.753906 -12.484375 7.914062 -12.226562 8.90625 -11.71875 C 9.90625 -11.207031 10.675781 -10.472656 11.21875 -9.515625 C 11.769531 -8.566406 12.046875 -7.457031 12.046875 -6.1875 C 12.046875 -4.925781 11.769531 -3.828125 11.21875 -2.890625 C 10.675781 -1.953125 9.90625 -1.234375 8.90625 -0.734375 C 7.914062 -0.242188 6.753906 0 5.421875 0 L 1.34375 0 L 1.34375 -12.484375 Z M 5.421875 -1.671875 C 6.878906 -1.671875 8 -2.066406 8.78125 -2.859375 C 9.5625 -3.648438 9.953125 -4.757812 9.953125 -6.1875 C 9.953125 -7.632812 9.5625 -8.765625 8.78125 -9.578125 C 8 -10.398438 6.878906 -10.8125 5.421875 -10.8125 L 3.390625 -10.8125 L 3.390625 -1.671875 Z M 5.421875 -1.671875 "/></g></g></g><g fill="#0e1446" fill-opacity="1"><g transform="translate(146.842984, 186.07754)"><g><path d="M 8.875 -2.546875 L 3.640625 -2.546875 L 2.75 0 L 0.609375 0 L 5.078125 -12.5 L 7.453125 -12.5 L 11.921875 0 L 9.765625 0 Z M 8.296875 -4.21875 L 6.265625 -10.015625 L 4.21875 -4.21875 Z M 8.296875 -4.21875 "/></g></g></g><g fill="#0e1446" fill-opacity="1"><g transform="translate(159.788319, 186.07754)"><g><path d="M 10.078125 -8.765625 C 10.078125 -8.128906 9.925781 -7.53125 9.625 -6.96875 C 9.320312 -6.40625 8.84375 -5.945312 8.1875 -5.59375 C 7.53125 -5.238281 6.6875 -5.0625 5.65625 -5.0625 L 3.390625 -5.0625 L 3.390625 0 L 1.34375 0 L 1.34375 -12.484375 L 5.65625 -12.484375 C 6.613281 -12.484375 7.421875 -12.316406 8.078125 -11.984375 C 8.742188 -11.648438 9.242188 -11.203125 9.578125 -10.640625 C 9.910156 -10.078125 10.078125 -9.453125 10.078125 -8.765625 Z M 5.65625 -6.734375 C 6.4375 -6.734375 7.015625 -6.910156 7.390625 -7.265625 C 7.773438 -7.617188 7.96875 -8.117188 7.96875 -8.765625 C 7.96875 -10.128906 7.195312 -10.8125 5.65625 -10.8125 L 3.390625 -10.8125 L 3.390625 -6.734375 Z M 5.65625 -6.734375 "/></g></g></g><g fill="#0e1446" fill-opacity="1"><g transform="translate(170.902305, 186.07754)"><g><path d="M 9.40625 -12.484375 L 9.40625 -10.8125 L 6.09375 -10.8125 L 6.09375 0 L 4.046875 0 L 4.046875 -10.8125 L 0.703125 -10.8125 L 0.703125 -12.484375 Z M 9.40625 -12.484375 "/></g></g></g><g fill="#0e1446" fill-opacity="1"><g transform="translate(181.459703, 186.07754)"><g><path d="M 8.875 -2.546875 L 3.640625 -2.546875 L 2.75 0 L 0.609375 0 L 5.078125 -12.5 L 7.453125 -12.5 L 11.921875 0 L 9.765625 0 Z M 8.296875 -4.21875 L 6.265625 -10.015625 L 4.21875 -4.21875 Z M 8.296875 -4.21875 "/></g></g></g><g fill="#0e1446" fill-opacity="1"><g transform="translate(194.405038, 186.07754)"><g><path d="M 8.03125 -6.40625 C 8.695312 -6.289062 9.265625 -5.9375 9.734375 -5.34375 C 10.203125 -4.757812 10.4375 -4.097656 10.4375 -3.359375 C 10.4375 -2.722656 10.269531 -2.148438 9.9375 -1.640625 C 9.601562 -1.128906 9.125 -0.726562 8.5 -0.4375 C 7.882812 -0.144531 7.164062 0 6.34375 0 L 1.34375 0 L 1.34375 -12.484375 L 6.109375 -12.484375 C 6.953125 -12.484375 7.675781 -12.335938 8.28125 -12.046875 C 8.894531 -11.753906 9.359375 -11.363281 9.671875 -10.875 C 9.984375 -10.394531 10.140625 -9.859375 10.140625 -9.265625 C 10.140625 -8.546875 9.945312 -7.945312 9.5625 -7.46875 C 9.1875 -6.988281 8.675781 -6.632812 8.03125 -6.40625 Z M 3.390625 -7.234375 L 5.921875 -7.234375 C 6.597656 -7.234375 7.125 -7.382812 7.5 -7.6875 C 7.875 -8 8.0625 -8.441406 8.0625 -9.015625 C 8.0625 -9.578125 7.875 -10.015625 7.5 -10.328125 C 7.125 -10.648438 6.597656 -10.8125 5.921875 -10.8125 L 3.390625 -10.8125 Z M 6.15625 -1.671875 C 6.851562 -1.671875 7.398438 -1.835938 7.796875 -2.171875 C 8.191406 -2.503906 8.390625 -2.972656 8.390625 -3.578125 C 8.390625 -4.179688 8.175781 -4.660156 7.75 -5.015625 C 7.332031 -5.378906 6.78125 -5.5625 6.09375 -5.5625 L 3.390625 -5.5625 L 3.390625 -1.671875 Z M 6.15625 -1.671875 "/></g></g></g><g fill="#0e1446" fill-opacity="1"><g transform="translate(206.147432, 186.07754)"><g><path d="M 3.390625 -1.65625 L 7.609375 -1.65625 L 7.609375 0 L 1.34375 0 L 1.34375 -12.484375 L 3.390625 -12.484375 Z M 3.390625 -1.65625 "/></g></g></g><g fill="#0e1446" fill-opacity="1"><g transform="translate(214.5503, 186.07754)"><g><path d="M 3.390625 -10.828125 L 3.390625 -7.15625 L 7.703125 -7.15625 L 7.703125 -5.5 L 3.390625 -5.5 L 3.390625 -1.671875 L 8.234375 -1.671875 L 8.234375 0 L 1.34375 0 L 1.34375 -12.5 L 8.234375 -12.5 L 8.234375 -10.828125 Z M 3.390625 -10.828125 "/></g></g></g><g fill="#0e1446" fill-opacity="1"><g transform="translate(224.389514, 186.07754)"><g/></g></g><g fill="#0e1446" fill-opacity="1"><g transform="translate(229.488765, 186.07754)"><g><path d="M 5.71875 -16.34375 L 7 -16.34375 L 7 5.4375 L 5.71875 5.4375 Z M 5.71875 -16.34375 "/></g></g></g><g fill="#0e1446" fill-opacity="1"><g transform="translate(242.640559, 186.07754)"><g/></g></g><g fill="#0e1446" fill-opacity="1"><g transform="translate(247.73981, 186.07754)"><g><path d="M 8.875 -2.546875 L 3.640625 -2.546875 L 2.75 0 L 0.609375 0 L 5.078125 -12.5 L 7.453125 -12.5 L 11.921875 0 L 9.765625 0 Z M 8.296875 -4.21875 L 6.265625 -10.015625 L 4.21875 -4.21875 Z M 8.296875 -4.21875 "/></g></g></g><g fill="#0e1446" fill-opacity="1"><g transform="translate(260.685145, 186.07754)"><g><path d="M 3.375 -12.484375 L 3.375 -4.53125 C 3.375 -3.582031 3.617188 -2.867188 4.109375 -2.390625 C 4.609375 -1.910156 5.300781 -1.671875 6.1875 -1.671875 C 7.09375 -1.671875 7.789062 -1.910156 8.28125 -2.390625 C 8.78125 -2.867188 9.03125 -3.582031 9.03125 -4.53125 L 9.03125 -12.484375 L 11.078125 -12.484375 L 11.078125 -4.5625 C 11.078125 -3.539062 10.851562 -2.675781 10.40625 -1.96875 C 9.96875 -1.269531 9.375 -0.742188 8.625 -0.390625 C 7.882812 -0.046875 7.066406 0.125 6.171875 0.125 C 5.273438 0.125 4.457031 -0.046875 3.71875 -0.390625 C 2.988281 -0.742188 2.40625 -1.269531 1.96875 -1.96875 C 1.539062 -2.675781 1.328125 -3.539062 1.328125 -4.5625 L 1.328125 -12.484375 Z M 3.375 -12.484375 "/></g></g></g><g fill="#0e1446" fill-opacity="1"><g transform="translate(273.504804, 186.07754)"><g><path d="M 9.40625 -12.484375 L 9.40625 -10.8125 L 6.09375 -10.8125 L 6.09375 0 L 4.046875 0 L 4.046875 -10.8125 L 0.703125 -10.8125 L 0.703125 -12.484375 Z M 9.40625 -12.484375 "/></g></g></g><g fill="#0e1446" fill-opacity="1"><g transform="translate(284.062202, 186.07754)"><g><path d="M 7.03125 0.125 C 5.875 0.125 4.804688 -0.144531 3.828125 -0.6875 C 2.859375 -1.238281 2.085938 -2 1.515625 -2.96875 C 0.953125 -3.945312 0.671875 -5.046875 0.671875 -6.265625 C 0.671875 -7.484375 0.953125 -8.578125 1.515625 -9.546875 C 2.085938 -10.515625 2.859375 -11.269531 3.828125 -11.8125 C 4.804688 -12.363281 5.875 -12.640625 7.03125 -12.640625 C 8.207031 -12.640625 9.28125 -12.363281 10.25 -11.8125 C 11.226562 -11.269531 12 -10.515625 12.5625 -9.546875 C 13.125 -8.578125 13.40625 -7.484375 13.40625 -6.265625 C 13.40625 -5.046875 13.125 -3.945312 12.5625 -2.96875 C 12 -2 11.226562 -1.238281 10.25 -0.6875 C 9.28125 -0.144531 8.207031 0.125 7.03125 0.125 Z M 7.03125 -1.65625 C 7.863281 -1.65625 8.601562 -1.84375 9.25 -2.21875 C 9.894531 -2.59375 10.398438 -3.128906 10.765625 -3.828125 C 11.128906 -4.535156 11.3125 -5.347656 11.3125 -6.265625 C 11.3125 -7.179688 11.128906 -7.988281 10.765625 -8.6875 C 10.398438 -9.382812 9.894531 -9.914062 9.25 -10.28125 C 8.601562 -10.65625 7.863281 -10.84375 7.03125 -10.84375 C 6.207031 -10.84375 5.472656 -10.65625 4.828125 -10.28125 C 4.179688 -9.914062 3.675781 -9.382812 3.3125 -8.6875 C 2.945312 -7.988281 2.765625 -7.179688 2.765625 -6.265625 C 2.765625 -5.347656 2.945312 -4.535156 3.3125 -3.828125 C 3.675781 -3.128906 4.179688 -2.59375 4.828125 -2.21875 C 5.472656 -1.84375 6.207031 -1.65625 7.03125 -1.65625 Z M 7.03125 -1.65625 "/></g></g></g><g fill="#0e1446" fill-opacity="1"><g transform="translate(298.569581, 186.07754)"><g><path d="M 5.421875 -12.484375 C 6.753906 -12.484375 7.914062 -12.226562 8.90625 -11.71875 C 9.90625 -11.207031 10.675781 -10.472656 11.21875 -9.515625 C 11.769531 -8.566406 12.046875 -7.457031 12.046875 -6.1875 C 12.046875 -4.925781 11.769531 -3.828125 11.21875 -2.890625 C 10.675781 -1.953125 9.90625 -1.234375 8.90625 -0.734375 C 7.914062 -0.242188 6.753906 0 5.421875 0 L 1.34375 0 L 1.34375 -12.484375 Z M 5.421875 -1.671875 C 6.878906 -1.671875 8 -2.066406 8.78125 -2.859375 C 9.5625 -3.648438 9.953125 -4.757812 9.953125 -6.1875 C 9.953125 -7.632812 9.5625 -8.765625 8.78125 -9.578125 C 8 -10.398438 6.878906 -10.8125 5.421875 -10.8125 L 3.390625 -10.8125 L 3.390625 -1.671875 Z M 5.421875 -1.671875 "/></g></g></g><g fill="#0e1446" fill-opacity="1"><g transform="translate(311.730377, 186.07754)"><g><path d="M 3.390625 -12.484375 L 3.390625 0 L 1.34375 0 L 1.34375 -12.484375 Z M 3.390625 -12.484375 "/></g></g></g><g fill="#0e1446" fill-opacity="1"><g transform="translate(316.901448, 186.07754)"><g><path d="M 5.421875 -12.484375 C 6.753906 -12.484375 7.914062 -12.226562 8.90625 -11.71875 C 9.90625 -11.207031 10.675781 -10.472656 11.21875 -9.515625 C 11.769531 -8.566406 12.046875 -7.457031 12.046875 -6.1875 C 12.046875 -4.925781 11.769531 -3.828125 11.21875 -2.890625 C 10.675781 -1.953125 9.90625 -1.234375 8.90625 -0.734375 C 7.914062 -0.242188 6.753906 0 5.421875 0 L 1.34375 0 L 1.34375 -12.484375 Z M 5.421875 -1.671875 C 6.878906 -1.671875 8 -2.066406 8.78125 -2.859375 C 9.5625 -3.648438 9.953125 -4.757812 9.953125 -6.1875 C 9.953125 -7.632812 9.5625 -8.765625 8.78125 -9.578125 C 8 -10.398438 6.878906 -10.8125 5.421875 -10.8125 L 3.390625 -10.8125 L 3.390625 -1.671875 Z M 5.421875 -1.671875 "/></g></g></g><g fill="#0e1446" fill-opacity="1"><g transform="translate(330.062244, 186.07754)"><g><path d="M 8.875 -2.546875 L 3.640625 -2.546875 L 2.75 0 L 0.609375 0 L 5.078125 -12.5 L 7.453125 -12.5 L 11.921875 0 L 9.765625 0 Z M 8.296875 -4.21875 L 6.265625 -10.015625 L 4.21875 -4.21875 Z M 8.296875 -4.21875 "/></g></g></g><g fill="#0e1446" fill-opacity="1"><g transform="translate(343.007579, 186.07754)"><g><path d="M 0.671875 -6.265625 C 0.671875 -7.484375 0.953125 -8.578125 1.515625 -9.546875 C 2.085938 -10.515625 2.859375 -11.269531 3.828125 -11.8125 C 4.804688 -12.363281 5.875 -12.640625 7.03125 -12.640625 C 8.363281 -12.640625 9.546875 -12.3125 10.578125 -11.65625 C 11.617188 -11.007812 12.375 -10.085938 12.84375 -8.890625 L 10.375 -8.890625 C 10.050781 -9.546875 9.601562 -10.035156 9.03125 -10.359375 C 8.457031 -10.679688 7.789062 -10.84375 7.03125 -10.84375 C 6.207031 -10.84375 5.472656 -10.65625 4.828125 -10.28125 C 4.179688 -9.914062 3.675781 -9.382812 3.3125 -8.6875 C 2.945312 -7.988281 2.765625 -7.179688 2.765625 -6.265625 C 2.765625 -5.347656 2.945312 -4.539062 3.3125 -3.84375 C 3.675781 -3.144531 4.179688 -2.609375 4.828125 -2.234375 C 5.472656 -1.859375 6.207031 -1.671875 7.03125 -1.671875 C 7.789062 -1.671875 8.457031 -1.832031 9.03125 -2.15625 C 9.601562 -2.476562 10.050781 -2.96875 10.375 -3.625 L 12.84375 -3.625 C 12.375 -2.425781 11.617188 -1.503906 10.578125 -0.859375 C 9.546875 -0.210938 8.363281 0.109375 7.03125 0.109375 C 5.863281 0.109375 4.796875 -0.160156 3.828125 -0.703125 C 2.859375 -1.253906 2.085938 -2.015625 1.515625 -2.984375 C 0.953125 -3.953125 0.671875 -5.046875 0.671875 -6.265625 Z M 0.671875 -6.265625 "/></g></g></g><g fill="#0e1446" fill-opacity="1"><g transform="translate(357.317482, 186.07754)"><g><path d="M 9.40625 -12.484375 L 9.40625 -10.8125 L 6.09375 -10.8125 L 6.09375 0 L 4.046875 0 L 4.046875 -10.8125 L 0.703125 -10.8125 L 0.703125 -12.484375 Z M 9.40625 -12.484375 "/></g></g></g><g fill="#0e1446" fill-opacity="1"><g transform="translate(367.87488, 186.07754)"><g><path d="M 8.875 -2.546875 L 3.640625 -2.546875 L 2.75 0 L 0.609375 0 L 5.078125 -12.5 L 7.453125 -12.5 L 11.921875 0 L 9.765625 0 Z M 8.296875 -4.21875 L 6.265625 -10.015625 L 4.21875 -4.21875 Z M 8.296875 -4.21875 "/></g></g></g><g fill="#0e1446" fill-opacity="1"><g transform="translate(380.823445, 186.07754)"><g/></g></g><g fill="#0e1446" fill-opacity="1"><g transform="translate(385.922687, 186.07754)"><g/></g></g><g fill="#0e1446" fill-opacity="1"><g transform="translate(0.0000153351, 210.999189)"><g><path d="M 10.078125 -8.765625 C 10.078125 -8.128906 9.925781 -7.53125 9.625 -6.96875 C 9.320312 -6.40625 8.84375 -5.945312 8.1875 -5.59375 C 7.53125 -5.238281 6.6875 -5.0625 5.65625 -5.0625 L 3.390625 -5.0625 L 3.390625 0 L 1.34375 0 L 1.34375 -12.484375 L 5.65625 -12.484375 C 6.613281 -12.484375 7.421875 -12.316406 8.078125 -11.984375 C 8.742188 -11.648438 9.242188 -11.203125 9.578125 -10.640625 C 9.910156 -10.078125 10.078125 -9.453125 10.078125 -8.765625 Z M 5.65625 -6.734375 C 6.4375 -6.734375 7.015625 -6.910156 7.390625 -7.265625 C 7.773438 -7.617188 7.96875 -8.117188 7.96875 -8.765625 C 7.96875 -10.128906 7.195312 -10.8125 5.65625 -10.8125 L 3.390625 -10.8125 L 3.390625 -6.734375 Z M 5.65625 -6.734375 "/></g></g></g><g fill="#0e1446" fill-opacity="1"><g transform="translate(11.114003, 210.999189)"><g><path d="M 7.828125 0 L 4.953125 -4.984375 L 3.390625 -4.984375 L 3.390625 0 L 1.34375 0 L 1.34375 -12.484375 L 5.65625 -12.484375 C 6.613281 -12.484375 7.421875 -12.3125 8.078125 -11.96875 C 8.742188 -11.632812 9.242188 -11.1875 9.578125 -10.625 C 9.910156 -10.0625 10.078125 -9.4375 10.078125 -8.75 C 10.078125 -7.925781 9.835938 -7.179688 9.359375 -6.515625 C 8.890625 -5.859375 8.164062 -5.410156 7.1875 -5.171875 L 10.265625 0 Z M 3.390625 -6.625 L 5.65625 -6.625 C 6.414062 -6.625 6.988281 -6.816406 7.375 -7.203125 C 7.769531 -7.585938 7.96875 -8.101562 7.96875 -8.75 C 7.96875 -9.394531 7.773438 -9.898438 7.390625 -10.265625 C 7.015625 -10.628906 6.4375 -10.8125 5.65625 -10.8125 L 3.390625 -10.8125 Z M 3.390625 -6.625 "/></g></g></g><g fill="#0e1446" fill-opacity="1"><g transform="translate(22.892308, 210.999189)"><g><path d="M 7.03125 0.125 C 5.875 0.125 4.804688 -0.144531 3.828125 -0.6875 C 2.859375 -1.238281 2.085938 -2 1.515625 -2.96875 C 0.953125 -3.945312 0.671875 -5.046875 0.671875 -6.265625 C 0.671875 -7.484375 0.953125 -8.578125 1.515625 -9.546875 C 2.085938 -10.515625 2.859375 -11.269531 3.828125 -11.8125 C 4.804688 -12.363281 5.875 -12.640625 7.03125 -12.640625 C 8.207031 -12.640625 9.28125 -12.363281 10.25 -11.8125 C 11.226562 -11.269531 12 -10.515625 12.5625 -9.546875 C 13.125 -8.578125 13.40625 -7.484375 13.40625 -6.265625 C 13.40625 -5.046875 13.125 -3.945312 12.5625 -2.96875 C 12 -2 11.226562 -1.238281 10.25 -0.6875 C 9.28125 -0.144531 8.207031 0.125 7.03125 0.125 Z M 7.03125 -1.65625 C 7.863281 -1.65625 8.601562 -1.84375 9.25 -2.21875 C 9.894531 -2.59375 10.398438 -3.128906 10.765625 -3.828125 C 11.128906 -4.535156 11.3125 -5.347656 11.3125 -6.265625 C 11.3125 -7.179688 11.128906 -7.988281 10.765625 -8.6875 C 10.398438 -9.382812 9.894531 -9.914062 9.25 -10.28125 C 8.601562 -10.65625 7.863281 -10.84375 7.03125 -10.84375 C 6.207031 -10.84375 5.472656 -10.65625 4.828125 -10.28125 C 4.179688 -9.914062 3.675781 -9.382812 3.3125 -8.6875 C 2.945312 -7.988281 2.765625 -7.179688 2.765625 -6.265625 C 2.765625 -5.347656 2.945312 -4.535156 3.3125 -3.828125 C 3.675781 -3.128906 4.179688 -2.59375 4.828125 -2.21875 C 5.472656 -1.84375 6.207031 -1.65625 7.03125 -1.65625 Z M 7.03125 -1.65625 "/></g></g></g><g fill="#0e1446" fill-opacity="1"><g transform="translate(37.399688, 210.999189)"><g><path d="M 10.375 -8.890625 C 10.050781 -9.515625 9.601562 -9.984375 9.03125 -10.296875 C 8.457031 -10.609375 7.789062 -10.765625 7.03125 -10.765625 C 6.207031 -10.765625 5.472656 -10.578125 4.828125 -10.203125 C 4.179688 -9.835938 3.675781 -9.3125 3.3125 -8.625 C 2.945312 -7.945312 2.765625 -7.160156 2.765625 -6.265625 C 2.765625 -5.367188 2.945312 -4.578125 3.3125 -3.890625 C 3.675781 -3.203125 4.179688 -2.671875 4.828125 -2.296875 C 5.472656 -1.921875 6.207031 -1.734375 7.03125 -1.734375 C 8.144531 -1.734375 9.050781 -2.046875 9.75 -2.671875 C 10.445312 -3.296875 10.867188 -4.140625 11.015625 -5.203125 L 6.34375 -5.203125 L 6.34375 -6.84375 L 13.21875 -6.84375 L 13.21875 -5.25 C 13.082031 -4.269531 12.734375 -3.375 12.171875 -2.5625 C 11.617188 -1.75 10.894531 -1.097656 10 -0.609375 C 9.113281 -0.128906 8.125 0.109375 7.03125 0.109375 C 5.863281 0.109375 4.796875 -0.160156 3.828125 -0.703125 C 2.859375 -1.253906 2.085938 -2.015625 1.515625 -2.984375 C 0.953125 -3.953125 0.671875 -5.046875 0.671875 -6.265625 C 0.671875 -7.484375 0.953125 -8.578125 1.515625 -9.546875 C 2.085938 -10.515625 2.859375 -11.269531 3.828125 -11.8125 C 4.804688 -12.363281 5.875 -12.640625 7.03125 -12.640625 C 8.363281 -12.640625 9.546875 -12.3125 10.578125 -11.65625 C 11.617188 -11.007812 12.375 -10.085938 12.84375 -8.890625 Z M 10.375 -8.890625 "/></g></g></g><g fill="#0e1446" fill-opacity="1"><g transform="translate(51.709571, 210.999189)"><g><path d="M 7.828125 0 L 4.953125 -4.984375 L 3.390625 -4.984375 L 3.390625 0 L 1.34375 0 L 1.34375 -12.484375 L 5.65625 -12.484375 C 6.613281 -12.484375 7.421875 -12.3125 8.078125 -11.96875 C 8.742188 -11.632812 9.242188 -11.1875 9.578125 -10.625 C 9.910156 -10.0625 10.078125 -9.4375 10.078125 -8.75 C 10.078125 -7.925781 9.835938 -7.179688 9.359375 -6.515625 C 8.890625 -5.859375 8.164062 -5.410156 7.1875 -5.171875 L 10.265625 0 Z M 3.390625 -6.625 L 5.65625 -6.625 C 6.414062 -6.625 6.988281 -6.816406 7.375 -7.203125 C 7.769531 -7.585938 7.96875 -8.101562 7.96875 -8.75 C 7.96875 -9.394531 7.773438 -9.898438 7.390625 -10.265625 C 7.015625 -10.628906 6.4375 -10.8125 5.65625 -10.8125 L 3.390625 -10.8125 Z M 3.390625 -6.625 "/></g></g></g><g fill="#0e1446" fill-opacity="1"><g transform="translate(63.487875, 210.999189)"><g><path d="M 8.875 -2.546875 L 3.640625 -2.546875 L 2.75 0 L 0.609375 0 L 5.078125 -12.5 L 7.453125 -12.5 L 11.921875 0 L 9.765625 0 Z M 8.296875 -4.21875 L 6.265625 -10.015625 L 4.21875 -4.21875 Z M 8.296875 -4.21875 "/></g></g></g><g fill="#0e1446" fill-opacity="1"><g transform="translate(76.43321, 210.999189)"><g><path d="M 14.484375 -12.484375 L 14.484375 0 L 12.4375 0 L 12.4375 -8.546875 L 8.640625 0 L 7.21875 0 L 3.390625 -8.546875 L 3.390625 0 L 1.34375 0 L 1.34375 -12.484375 L 3.5625 -12.484375 L 7.9375 -2.6875 L 12.296875 -12.484375 Z M 14.484375 -12.484375 "/></g></g></g><g fill="#0e1446" fill-opacity="1"><g transform="translate(92.700132, 210.999189)"><g><path d="M 8.875 -2.546875 L 3.640625 -2.546875 L 2.75 0 L 0.609375 0 L 5.078125 -12.5 L 7.453125 -12.5 L 11.921875 0 L 9.765625 0 Z M 8.296875 -4.21875 L 6.265625 -10.015625 L 4.21875 -4.21875 Z M 8.296875 -4.21875 "/></g></g></g><g fill="#0e1446" fill-opacity="1"><g transform="translate(105.645467, 210.999189)"><g><path d="M 5.421875 -12.484375 C 6.753906 -12.484375 7.914062 -12.226562 8.90625 -11.71875 C 9.90625 -11.207031 10.675781 -10.472656 11.21875 -9.515625 C 11.769531 -8.566406 12.046875 -7.457031 12.046875 -6.1875 C 12.046875 -4.925781 11.769531 -3.828125 11.21875 -2.890625 C 10.675781 -1.953125 9.90625 -1.234375 8.90625 -0.734375 C 7.914062 -0.242188 6.753906 0 5.421875 0 L 1.34375 0 L 1.34375 -12.484375 Z M 5.421875 -1.671875 C 6.878906 -1.671875 8 -2.066406 8.78125 -2.859375 C 9.5625 -3.648438 9.953125 -4.757812 9.953125 -6.1875 C 9.953125 -7.632812 9.5625 -8.765625 8.78125 -9.578125 C 8 -10.398438 6.878906 -10.8125 5.421875 -10.8125 L 3.390625 -10.8125 L 3.390625 -1.671875 Z M 5.421875 -1.671875 "/></g></g></g><g fill="#0e1446" fill-opacity="1"><g transform="translate(118.806263, 210.999189)"><g><path d="M 7.03125 0.125 C 5.875 0.125 4.804688 -0.144531 3.828125 -0.6875 C 2.859375 -1.238281 2.085938 -2 1.515625 -2.96875 C 0.953125 -3.945312 0.671875 -5.046875 0.671875 -6.265625 C 0.671875 -7.484375 0.953125 -8.578125 1.515625 -9.546875 C 2.085938 -10.515625 2.859375 -11.269531 3.828125 -11.8125 C 4.804688 -12.363281 5.875 -12.640625 7.03125 -12.640625 C 8.207031 -12.640625 9.28125 -12.363281 10.25 -11.8125 C 11.226562 -11.269531 12 -10.515625 12.5625 -9.546875 C 13.125 -8.578125 13.40625 -7.484375 13.40625 -6.265625 C 13.40625 -5.046875 13.125 -3.945312 12.5625 -2.96875 C 12 -2 11.226562 -1.238281 10.25 -0.6875 C 9.28125 -0.144531 8.207031 0.125 7.03125 0.125 Z M 7.03125 -1.65625 C 7.863281 -1.65625 8.601562 -1.84375 9.25 -2.21875 C 9.894531 -2.59375 10.398438 -3.128906 10.765625 -3.828125 C 11.128906 -4.535156 11.3125 -5.347656 11.3125 -6.265625 C 11.3125 -7.179688 11.128906 -7.988281 10.765625 -8.6875 C 10.398438 -9.382812 9.894531 -9.914062 9.25 -10.28125 C 8.601562 -10.65625 7.863281 -10.84375 7.03125 -10.84375 C 6.207031 -10.84375 5.472656 -10.65625 4.828125 -10.28125 C 4.179688 -9.914062 3.675781 -9.382812 3.3125 -8.6875 C 2.945312 -7.988281 2.765625 -7.179688 2.765625 -6.265625 C 2.765625 -5.347656 2.945312 -4.535156 3.3125 -3.828125 C 3.675781 -3.128906 4.179688 -2.59375 4.828125 -2.21875 C 5.472656 -1.84375 6.207031 -1.65625 7.03125 -1.65625 Z M 7.03125 -1.65625 "/></g></g></g><g fill="#0e1446" fill-opacity="1"><g transform="translate(133.313642, 210.999189)"><g><path d="M 7.828125 0 L 4.953125 -4.984375 L 3.390625 -4.984375 L 3.390625 0 L 1.34375 0 L 1.34375 -12.484375 L 5.65625 -12.484375 C 6.613281 -12.484375 7.421875 -12.3125 8.078125 -11.96875 C 8.742188 -11.632812 9.242188 -11.1875 9.578125 -10.625 C 9.910156 -10.0625 10.078125 -9.4375 10.078125 -8.75 C 10.078125 -7.925781 9.835938 -7.179688 9.359375 -6.515625 C 8.890625 -5.859375 8.164062 -5.410156 7.1875 -5.171875 L 10.265625 0 Z M 3.390625 -6.625 L 5.65625 -6.625 C 6.414062 -6.625 6.988281 -6.816406 7.375 -7.203125 C 7.769531 -7.585938 7.96875 -8.101562 7.96875 -8.75 C 7.96875 -9.394531 7.773438 -9.898438 7.390625 -10.265625 C 7.015625 -10.628906 6.4375 -10.8125 5.65625 -10.8125 L 3.390625 -10.8125 Z M 3.390625 -6.625 "/></g></g></g><g fill="#0e1446" fill-opacity="1"><g transform="translate(150.198406, 210.999189)"><g><path d="M 5.71875 -16.34375 L 7 -16.34375 L 7 5.4375 L 5.71875 5.4375 Z M 5.71875 -16.34375 "/></g></g></g><g fill="#0e1446" fill-opacity="1"><g transform="translate(168.449441, 210.999189)"><g><path d="M 5.421875 -12.484375 C 6.753906 -12.484375 7.914062 -12.226562 8.90625 -11.71875 C 9.90625 -11.207031 10.675781 -10.472656 11.21875 -9.515625 C 11.769531 -8.566406 12.046875 -7.457031 12.046875 -6.1875 C 12.046875 -4.925781 11.769531 -3.828125 11.21875 -2.890625 C 10.675781 -1.953125 9.90625 -1.234375 8.90625 -0.734375 C 7.914062 -0.242188 6.753906 0 5.421875 0 L 1.34375 0 L 1.34375 -12.484375 Z M 5.421875 -1.671875 C 6.878906 -1.671875 8 -2.066406 8.78125 -2.859375 C 9.5625 -3.648438 9.953125 -4.757812 9.953125 -6.1875 C 9.953125 -7.632812 9.5625 -8.765625 8.78125 -9.578125 C 8 -10.398438 6.878906 -10.8125 5.421875 -10.8125 L 3.390625 -10.8125 L 3.390625 -1.671875 Z M 5.421875 -1.671875 "/></g></g></g><g fill="#0e1446" fill-opacity="1"><g transform="translate(181.61024, 210.999189)"><g><path d="M 3.390625 -10.828125 L 3.390625 -7.15625 L 7.703125 -7.15625 L 7.703125 -5.5 L 3.390625 -5.5 L 3.390625 -1.671875 L 8.234375 -1.671875 L 8.234375 0 L 1.34375 0 L 1.34375 -12.5 L 8.234375 -12.5 L 8.234375 -10.828125 Z M 3.390625 -10.828125 "/></g></g></g><g fill="#0e1446" fill-opacity="1"><g transform="translate(191.449454, 210.999189)"><g><path d="M 5.453125 0.125 C 4.617188 0.125 3.863281 -0.0195312 3.1875 -0.3125 C 2.519531 -0.601562 1.992188 -1.019531 1.609375 -1.5625 C 1.234375 -2.101562 1.046875 -2.734375 1.046875 -3.453125 L 3.234375 -3.453125 C 3.273438 -2.910156 3.484375 -2.460938 3.859375 -2.109375 C 4.242188 -1.765625 4.773438 -1.59375 5.453125 -1.59375 C 6.160156 -1.59375 6.710938 -1.765625 7.109375 -2.109375 C 7.503906 -2.453125 7.703125 -2.890625 7.703125 -3.421875 C 7.703125 -3.847656 7.578125 -4.191406 7.328125 -4.453125 C 7.085938 -4.710938 6.785156 -4.914062 6.421875 -5.0625 C 6.054688 -5.207031 5.550781 -5.363281 4.90625 -5.53125 C 4.09375 -5.75 3.429688 -5.96875 2.921875 -6.1875 C 2.410156 -6.40625 1.972656 -6.75 1.609375 -7.21875 C 1.253906 -7.6875 1.078125 -8.304688 1.078125 -9.078125 C 1.078125 -9.796875 1.253906 -10.425781 1.609375 -10.96875 C 1.972656 -11.507812 2.476562 -11.921875 3.125 -12.203125 C 3.769531 -12.492188 4.519531 -12.640625 5.375 -12.640625 C 6.582031 -12.640625 7.570312 -12.335938 8.34375 -11.734375 C 9.113281 -11.128906 9.539062 -10.300781 9.625 -9.25 L 7.359375 -9.25 C 7.328125 -9.695312 7.113281 -10.082031 6.71875 -10.40625 C 6.320312 -10.726562 5.800781 -10.890625 5.15625 -10.890625 C 4.5625 -10.890625 4.078125 -10.738281 3.703125 -10.4375 C 3.335938 -10.144531 3.15625 -9.71875 3.15625 -9.15625 C 3.15625 -8.769531 3.269531 -8.453125 3.5 -8.203125 C 3.738281 -7.960938 4.035156 -7.769531 4.390625 -7.625 C 4.753906 -7.488281 5.25 -7.332031 5.875 -7.15625 C 6.695312 -6.9375 7.367188 -6.710938 7.890625 -6.484375 C 8.410156 -6.253906 8.851562 -5.898438 9.21875 -5.421875 C 9.582031 -4.953125 9.765625 -4.320312 9.765625 -3.53125 C 9.765625 -2.894531 9.59375 -2.296875 9.25 -1.734375 C 8.914062 -1.171875 8.421875 -0.71875 7.765625 -0.375 C 7.109375 -0.0390625 6.335938 0.125 5.453125 0.125 Z M 5.453125 0.125 "/></g></g></g><g fill="#0e1446" fill-opacity="1"><g transform="translate(202.725026, 210.999189)"><g><path d="M 8.875 -2.546875 L 3.640625 -2.546875 L 2.75 0 L 0.609375 0 L 5.078125 -12.5 L 7.453125 -12.5 L 11.921875 0 L 9.765625 0 Z M 8.296875 -4.21875 L 6.265625 -10.015625 L 4.21875 -4.21875 Z M 8.296875 -4.21875 "/></g></g></g><g fill="#0e1446" fill-opacity="1"><g transform="translate(215.670361, 210.999189)"><g><path d="M 7.828125 0 L 4.953125 -4.984375 L 3.390625 -4.984375 L 3.390625 0 L 1.34375 0 L 1.34375 -12.484375 L 5.65625 -12.484375 C 6.613281 -12.484375 7.421875 -12.3125 8.078125 -11.96875 C 8.742188 -11.632812 9.242188 -11.1875 9.578125 -10.625 C 9.910156 -10.0625 10.078125 -9.4375 10.078125 -8.75 C 10.078125 -7.925781 9.835938 -7.179688 9.359375 -6.515625 C 8.890625 -5.859375 8.164062 -5.410156 7.1875 -5.171875 L 10.265625 0 Z M 3.390625 -6.625 L 5.65625 -6.625 C 6.414062 -6.625 6.988281 -6.816406 7.375 -7.203125 C 7.769531 -7.585938 7.96875 -8.101562 7.96875 -8.75 C 7.96875 -9.394531 7.773438 -9.898438 7.390625 -10.265625 C 7.015625 -10.628906 6.4375 -10.8125 5.65625 -10.8125 L 3.390625 -10.8125 Z M 3.390625 -6.625 "/></g></g></g><g fill="#0e1446" fill-opacity="1"><g transform="translate(227.448665, 210.999189)"><g><path d="M 7.828125 0 L 4.953125 -4.984375 L 3.390625 -4.984375 L 3.390625 0 L 1.34375 0 L 1.34375 -12.484375 L 5.65625 -12.484375 C 6.613281 -12.484375 7.421875 -12.3125 8.078125 -11.96875 C 8.742188 -11.632812 9.242188 -11.1875 9.578125 -10.625 C 9.910156 -10.0625 10.078125 -9.4375 10.078125 -8.75 C 10.078125 -7.925781 9.835938 -7.179688 9.359375 -6.515625 C 8.890625 -5.859375 8.164062 -5.410156 7.1875 -5.171875 L 10.265625 0 Z M 3.390625 -6.625 L 5.65625 -6.625 C 6.414062 -6.625 6.988281 -6.816406 7.375 -7.203125 C 7.769531 -7.585938 7.96875 -8.101562 7.96875 -8.75 C 7.96875 -9.394531 7.773438 -9.898438 7.390625 -10.265625 C 7.015625 -10.628906 6.4375 -10.8125 5.65625 -10.8125 L 3.390625 -10.8125 Z M 3.390625 -6.625 "/></g></g></g><g fill="#0e1446" fill-opacity="1"><g transform="translate(239.226975, 210.999189)"><g><path d="M 7.03125 0.125 C 5.875 0.125 4.804688 -0.144531 3.828125 -0.6875 C 2.859375 -1.238281 2.085938 -2 1.515625 -2.96875 C 0.953125 -3.945312 0.671875 -5.046875 0.671875 -6.265625 C 0.671875 -7.484375 0.953125 -8.578125 1.515625 -9.546875 C 2.085938 -10.515625 2.859375 -11.269531 3.828125 -11.8125 C 4.804688 -12.363281 5.875 -12.640625 7.03125 -12.640625 C 8.207031 -12.640625 9.28125 -12.363281 10.25 -11.8125 C 11.226562 -11.269531 12 -10.515625 12.5625 -9.546875 C 13.125 -8.578125 13.40625 -7.484375 13.40625 -6.265625 C 13.40625 -5.046875 13.125 -3.945312 12.5625 -2.96875 C 12 -2 11.226562 -1.238281 10.25 -0.6875 C 9.28125 -0.144531 8.207031 0.125 7.03125 0.125 Z M 7.03125 -1.65625 C 7.863281 -1.65625 8.601562 -1.84375 9.25 -2.21875 C 9.894531 -2.59375 10.398438 -3.128906 10.765625 -3.828125 C 11.128906 -4.535156 11.3125 -5.347656 11.3125 -6.265625 C 11.3125 -7.179688 11.128906 -7.988281 10.765625 -8.6875 C 10.398438 -9.382812 9.894531 -9.914062 9.25 -10.28125 C 8.601562 -10.65625 7.863281 -10.84375 7.03125 -10.84375 C 6.207031 -10.84375 5.472656 -10.65625 4.828125 -10.28125 C 4.179688 -9.914062 3.675781 -9.382812 3.3125 -8.6875 C 2.945312 -7.988281 2.765625 -7.179688 2.765625 -6.265625 C 2.765625 -5.347656 2.945312 -4.535156 3.3125 -3.828125 C 3.675781 -3.128906 4.179688 -2.59375 4.828125 -2.21875 C 5.472656 -1.84375 6.207031 -1.65625 7.03125 -1.65625 Z M 7.03125 -1.65625 "/></g></g></g><g fill="#0e1446" fill-opacity="1"><g transform="translate(253.734353, 210.999189)"><g><path d="M 3.390625 -1.65625 L 7.609375 -1.65625 L 7.609375 0 L 1.34375 0 L 1.34375 -12.484375 L 3.390625 -12.484375 Z M 3.390625 -1.65625 "/></g></g></g><g fill="#0e1446" fill-opacity="1"><g transform="translate(262.13721, 210.999189)"><g><path d="M 3.390625 -1.65625 L 7.609375 -1.65625 L 7.609375 0 L 1.34375 0 L 1.34375 -12.484375 L 3.390625 -12.484375 Z M 3.390625 -1.65625 "/></g></g></g><g fill="#0e1446" fill-opacity="1"><g transform="translate(270.540067, 210.999189)"><g><path d="M 8.875 -2.546875 L 3.640625 -2.546875 L 2.75 0 L 0.609375 0 L 5.078125 -12.5 L 7.453125 -12.5 L 11.921875 0 L 9.765625 0 Z M 8.296875 -4.21875 L 6.265625 -10.015625 L 4.21875 -4.21875 Z M 8.296875 -4.21875 "/></g></g></g><g fill="#0e1446" fill-opacity="1"><g transform="translate(283.485402, 210.999189)"><g><path d="M 5.421875 -12.484375 C 6.753906 -12.484375 7.914062 -12.226562 8.90625 -11.71875 C 9.90625 -11.207031 10.675781 -10.472656 11.21875 -9.515625 C 11.769531 -8.566406 12.046875 -7.457031 12.046875 -6.1875 C 12.046875 -4.925781 11.769531 -3.828125 11.21875 -2.890625 C 10.675781 -1.953125 9.90625 -1.234375 8.90625 -0.734375 C 7.914062 -0.242188 6.753906 0 5.421875 0 L 1.34375 0 L 1.34375 -12.484375 Z M 5.421875 -1.671875 C 6.878906 -1.671875 8 -2.066406 8.78125 -2.859375 C 9.5625 -3.648438 9.953125 -4.757812 9.953125 -6.1875 C 9.953125 -7.632812 9.5625 -8.765625 8.78125 -9.578125 C 8 -10.398438 6.878906 -10.8125 5.421875 -10.8125 L 3.390625 -10.8125 L 3.390625 -1.671875 Z M 5.421875 -1.671875 "/></g></g></g><g fill="#0e1446" fill-opacity="1"><g transform="translate(296.646198, 210.999189)"><g><path d="M 7.03125 0.125 C 5.875 0.125 4.804688 -0.144531 3.828125 -0.6875 C 2.859375 -1.238281 2.085938 -2 1.515625 -2.96875 C 0.953125 -3.945312 0.671875 -5.046875 0.671875 -6.265625 C 0.671875 -7.484375 0.953125 -8.578125 1.515625 -9.546875 C 2.085938 -10.515625 2.859375 -11.269531 3.828125 -11.8125 C 4.804688 -12.363281 5.875 -12.640625 7.03125 -12.640625 C 8.207031 -12.640625 9.28125 -12.363281 10.25 -11.8125 C 11.226562 -11.269531 12 -10.515625 12.5625 -9.546875 C 13.125 -8.578125 13.40625 -7.484375 13.40625 -6.265625 C 13.40625 -5.046875 13.125 -3.945312 12.5625 -2.96875 C 12 -2 11.226562 -1.238281 10.25 -0.6875 C 9.28125 -0.144531 8.207031 0.125 7.03125 0.125 Z M 7.03125 -1.65625 C 7.863281 -1.65625 8.601562 -1.84375 9.25 -2.21875 C 9.894531 -2.59375 10.398438 -3.128906 10.765625 -3.828125 C 11.128906 -4.535156 11.3125 -5.347656 11.3125 -6.265625 C 11.3125 -7.179688 11.128906 -7.988281 10.765625 -8.6875 C 10.398438 -9.382812 9.894531 -9.914062 9.25 -10.28125 C 8.601562 -10.65625 7.863281 -10.84375 7.03125 -10.84375 C 6.207031 -10.84375 5.472656 -10.65625 4.828125 -10.28125 C 4.179688 -9.914062 3.675781 -9.382812 3.3125 -8.6875 C 2.945312 -7.988281 2.765625 -7.179688 2.765625 -6.265625 C 2.765625 -5.347656 2.945312 -4.535156 3.3125 -3.828125 C 3.675781 -3.128906 4.179688 -2.59375 4.828125 -2.21875 C 5.472656 -1.84375 6.207031 -1.65625 7.03125 -1.65625 Z M 7.03125 -1.65625 "/></g></g></g><g fill="#0e1446" fill-opacity="1"><g transform="translate(311.153576, 210.999189)"><g><path d="M 7.828125 0 L 4.953125 -4.984375 L 3.390625 -4.984375 L 3.390625 0 L 1.34375 0 L 1.34375 -12.484375 L 5.65625 -12.484375 C 6.613281 -12.484375 7.421875 -12.3125 8.078125 -11.96875 C 8.742188 -11.632812 9.242188 -11.1875 9.578125 -10.625 C 9.910156 -10.0625 10.078125 -9.4375 10.078125 -8.75 C 10.078125 -7.925781 9.835938 -7.179688 9.359375 -6.515625 C 8.890625 -5.859375 8.164062 -5.410156 7.1875 -5.171875 L 10.265625 0 Z M 3.390625 -6.625 L 5.65625 -6.625 C 6.414062 -6.625 6.988281 -6.816406 7.375 -7.203125 C 7.769531 -7.585938 7.96875 -8.101562 7.96875 -8.75 C 7.96875 -9.394531 7.773438 -9.898438 7.390625 -10.265625 C 7.015625 -10.628906 6.4375 -10.8125 5.65625 -10.8125 L 3.390625 -10.8125 Z M 3.390625 -6.625 "/></g></g></g><g fill="#0e1446" fill-opacity="1"><g transform="translate(328.031131, 210.999189)"><g><path d="M 17.59375 -12.484375 L 13.890625 0 L 11.578125 0 L 8.953125 -9.4375 L 6.171875 0 L 3.875 0.015625 L 0.34375 -12.484375 L 2.515625 -12.484375 L 5.09375 -2.3125 L 7.90625 -12.484375 L 10.203125 -12.484375 L 12.796875 -2.375 L 15.40625 -12.484375 Z M 17.59375 -12.484375 "/></g></g></g><g fill="#0e1446" fill-opacity="1"><g transform="translate(346.398724, 210.999189)"><g><path d="M 3.390625 -10.828125 L 3.390625 -7.15625 L 7.703125 -7.15625 L 7.703125 -5.5 L 3.390625 -5.5 L 3.390625 -1.671875 L 8.234375 -1.671875 L 8.234375 0 L 1.34375 0 L 1.34375 -12.5 L 8.234375 -12.5 L 8.234375 -10.828125 Z M 3.390625 -10.828125 "/></g></g></g><g fill="#0e1446" fill-opacity="1"><g transform="translate(356.237939, 210.999189)"><g><path d="M 8.03125 -6.40625 C 8.695312 -6.289062 9.265625 -5.9375 9.734375 -5.34375 C 10.203125 -4.757812 10.4375 -4.097656 10.4375 -3.359375 C 10.4375 -2.722656 10.269531 -2.148438 9.9375 -1.640625 C 9.601562 -1.128906 9.125 -0.726562 8.5 -0.4375 C 7.882812 -0.144531 7.164062 0 6.34375 0 L 1.34375 0 L 1.34375 -12.484375 L 6.109375 -12.484375 C 6.953125 -12.484375 7.675781 -12.335938 8.28125 -12.046875 C 8.894531 -11.753906 9.359375 -11.363281 9.671875 -10.875 C 9.984375 -10.394531 10.140625 -9.859375 10.140625 -9.265625 C 10.140625 -8.546875 9.945312 -7.945312 9.5625 -7.46875 C 9.1875 -6.988281 8.675781 -6.632812 8.03125 -6.40625 Z M 3.390625 -7.234375 L 5.921875 -7.234375 C 6.597656 -7.234375 7.125 -7.382812 7.5 -7.6875 C 7.875 -8 8.0625 -8.441406 8.0625 -9.015625 C 8.0625 -9.578125 7.875 -10.015625 7.5 -10.328125 C 7.125 -10.648438 6.597656 -10.8125 5.921875 -10.8125 L 3.390625 -10.8125 Z M 6.15625 -1.671875 C 6.851562 -1.671875 7.398438 -1.835938 7.796875 -2.171875 C 8.191406 -2.503906 8.390625 -2.972656 8.390625 -3.578125 C 8.390625 -4.179688 8.175781 -4.660156 7.75 -5.015625 C 7.332031 -5.378906 6.78125 -5.5625 6.09375 -5.5625 L 3.390625 -5.5625 L 3.390625 -1.671875 Z M 6.15625 -1.671875 "/></g></g></g><g fill="#0e1446" fill-opacity="1"><g transform="translate(0.0000153351, 235.920838)"><g><path d="M 8.875 -2.546875 L 3.640625 -2.546875 L 2.75 0 L 0.609375 0 L 5.078125 -12.5 L 7.453125 -12.5 L 11.921875 0 L 9.765625 0 Z M 8.296875 -4.21875 L 6.265625 -10.015625 L 4.21875 -4.21875 Z M 8.296875 -4.21875 "/></g></g></g><g fill="#0e1446" fill-opacity="1"><g transform="translate(12.945352, 235.920838)"><g><path d="M 11.59375 0 L 9.546875 0 L 3.390625 -9.3125 L 3.390625 0 L 1.34375 0 L 1.34375 -12.5 L 3.390625 -12.5 L 9.546875 -3.203125 L 9.546875 -12.5 L 11.59375 -12.5 Z M 11.59375 0 "/></g></g></g><g fill="#0e1446" fill-opacity="1"><g transform="translate(26.3216, 235.920838)"><g><path d="M 8.875 -2.546875 L 3.640625 -2.546875 L 2.75 0 L 0.609375 0 L 5.078125 -12.5 L 7.453125 -12.5 L 11.921875 0 L 9.765625 0 Z M 8.296875 -4.21875 L 6.265625 -10.015625 L 4.21875 -4.21875 Z M 8.296875 -4.21875 "/></g></g></g><g fill="#0e1446" fill-opacity="1"><g transform="translate(39.266938, 235.920838)"><g><path d="M 3.390625 -1.65625 L 7.609375 -1.65625 L 7.609375 0 L 1.34375 0 L 1.34375 -12.484375 L 3.390625 -12.484375 Z M 3.390625 -1.65625 "/></g></g></g><g fill="#0e1446" fill-opacity="1"><g transform="translate(47.669795, 235.920838)"><g><path d="M 3.390625 -12.484375 L 3.390625 0 L 1.34375 0 L 1.34375 -12.484375 Z M 4.21875 -15.15625 L 0.25 -13.203125 L 0.25 -14.703125 L 4.21875 -16.90625 Z M 4.21875 -15.15625 "/></g></g></g><g fill="#0e1446" fill-opacity="1"><g transform="translate(52.840856, 235.920838)"><g><path d="M 5.453125 0.125 C 4.617188 0.125 3.863281 -0.0195312 3.1875 -0.3125 C 2.519531 -0.601562 1.992188 -1.019531 1.609375 -1.5625 C 1.234375 -2.101562 1.046875 -2.734375 1.046875 -3.453125 L 3.234375 -3.453125 C 3.273438 -2.910156 3.484375 -2.460938 3.859375 -2.109375 C 4.242188 -1.765625 4.773438 -1.59375 5.453125 -1.59375 C 6.160156 -1.59375 6.710938 -1.765625 7.109375 -2.109375 C 7.503906 -2.453125 7.703125 -2.890625 7.703125 -3.421875 C 7.703125 -3.847656 7.578125 -4.191406 7.328125 -4.453125 C 7.085938 -4.710938 6.785156 -4.914062 6.421875 -5.0625 C 6.054688 -5.207031 5.550781 -5.363281 4.90625 -5.53125 C 4.09375 -5.75 3.429688 -5.96875 2.921875 -6.1875 C 2.410156 -6.40625 1.972656 -6.75 1.609375 -7.21875 C 1.253906 -7.6875 1.078125 -8.304688 1.078125 -9.078125 C 1.078125 -9.796875 1.253906 -10.425781 1.609375 -10.96875 C 1.972656 -11.507812 2.476562 -11.921875 3.125 -12.203125 C 3.769531 -12.492188 4.519531 -12.640625 5.375 -12.640625 C 6.582031 -12.640625 7.570312 -12.335938 8.34375 -11.734375 C 9.113281 -11.128906 9.539062 -10.300781 9.625 -9.25 L 7.359375 -9.25 C 7.328125 -9.695312 7.113281 -10.082031 6.71875 -10.40625 C 6.320312 -10.726562 5.800781 -10.890625 5.15625 -10.890625 C 4.5625 -10.890625 4.078125 -10.738281 3.703125 -10.4375 C 3.335938 -10.144531 3.15625 -9.71875 3.15625 -9.15625 C 3.15625 -8.769531 3.269531 -8.453125 3.5 -8.203125 C 3.738281 -7.960938 4.035156 -7.769531 4.390625 -7.625 C 4.753906 -7.488281 5.25 -7.332031 5.875 -7.15625 C 6.695312 -6.9375 7.367188 -6.710938 7.890625 -6.484375 C 8.410156 -6.253906 8.851562 -5.898438 9.21875 -5.421875 C 9.582031 -4.953125 9.765625 -4.320312 9.765625 -3.53125 C 9.765625 -2.894531 9.59375 -2.296875 9.25 -1.734375 C 8.914062 -1.171875 8.421875 -0.71875 7.765625 -0.375 C 7.109375 -0.0390625 6.335938 0.125 5.453125 0.125 Z M 5.453125 0.125 "/></g></g></g><g fill="#0e1446" fill-opacity="1"><g transform="translate(64.116428, 235.920838)"><g><path d="M 9.40625 -12.484375 L 9.40625 -10.8125 L 6.09375 -10.8125 L 6.09375 0 L 4.046875 0 L 4.046875 -10.8125 L 0.703125 -10.8125 L 0.703125 -12.484375 Z M 9.40625 -12.484375 "/></g></g></g><g fill="#0e1446" fill-opacity="1"><g transform="translate(74.673826, 235.920838)"><g><path d="M 8.875 -2.546875 L 3.640625 -2.546875 L 2.75 0 L 0.609375 0 L 5.078125 -12.5 L 7.453125 -12.5 L 11.921875 0 L 9.765625 0 Z M 8.296875 -4.21875 L 6.265625 -10.015625 L 4.21875 -4.21875 Z M 8.296875 -4.21875 "/></g></g></g><g fill="#0e1446" fill-opacity="1"><g transform="translate(87.619166, 235.920838)"><g/></g></g><g fill="#0e1446" fill-opacity="1"><g transform="translate(92.718406, 235.920838)"><g><path d="M 5.421875 -12.484375 C 6.753906 -12.484375 7.914062 -12.226562 8.90625 -11.71875 C 9.90625 -11.207031 10.675781 -10.472656 11.21875 -9.515625 C 11.769531 -8.566406 12.046875 -7.457031 12.046875 -6.1875 C 12.046875 -4.925781 11.769531 -3.828125 11.21875 -2.890625 C 10.675781 -1.953125 9.90625 -1.234375 8.90625 -0.734375 C 7.914062 -0.242188 6.753906 0 5.421875 0 L 1.34375 0 L 1.34375 -12.484375 Z M 5.421875 -1.671875 C 6.878906 -1.671875 8 -2.066406 8.78125 -2.859375 C 9.5625 -3.648438 9.953125 -4.757812 9.953125 -6.1875 C 9.953125 -7.632812 9.5625 -8.765625 8.78125 -9.578125 C 8 -10.398438 6.878906 -10.8125 5.421875 -10.8125 L 3.390625 -10.8125 L 3.390625 -1.671875 Z M 5.421875 -1.671875 "/></g></g></g><g fill="#0e1446" fill-opacity="1"><g transform="translate(105.879202, 235.920838)"><g><path d="M 3.390625 -10.828125 L 3.390625 -7.15625 L 7.703125 -7.15625 L 7.703125 -5.5 L 3.390625 -5.5 L 3.390625 -1.671875 L 8.234375 -1.671875 L 8.234375 0 L 1.34375 0 L 1.34375 -12.5 L 8.234375 -12.5 L 8.234375 -10.828125 Z M 3.390625 -10.828125 "/></g></g></g><g fill="#0e1446" fill-opacity="1"><g transform="translate(115.718417, 235.920838)"><g/></g></g><g fill="#0e1446" fill-opacity="1"><g transform="translate(120.817657, 235.920838)"><g><path d="M 5.421875 -12.484375 C 6.753906 -12.484375 7.914062 -12.226562 8.90625 -11.71875 C 9.90625 -11.207031 10.675781 -10.472656 11.21875 -9.515625 C 11.769531 -8.566406 12.046875 -7.457031 12.046875 -6.1875 C 12.046875 -4.925781 11.769531 -3.828125 11.21875 -2.890625 C 10.675781 -1.953125 9.90625 -1.234375 8.90625 -0.734375 C 7.914062 -0.242188 6.753906 0 5.421875 0 L 1.34375 0 L 1.34375 -12.484375 Z M 5.421875 -1.671875 C 6.878906 -1.671875 8 -2.066406 8.78125 -2.859375 C 9.5625 -3.648438 9.953125 -4.757812 9.953125 -6.1875 C 9.953125 -7.632812 9.5625 -8.765625 8.78125 -9.578125 C 8 -10.398438 6.878906 -10.8125 5.421875 -10.8125 L 3.390625 -10.8125 L 3.390625 -1.671875 Z M 5.421875 -1.671875 "/></g></g></g><g fill="#0e1446" fill-opacity="1"><g transform="translate(133.978453, 235.920838)"><g><path d="M 8.875 -2.546875 L 3.640625 -2.546875 L 2.75 0 L 0.609375 0 L 5.078125 -12.5 L 7.453125 -12.5 L 11.921875 0 L 9.765625 0 Z M 8.296875 -4.21875 L 6.265625 -10.015625 L 4.21875 -4.21875 Z M 8.296875 -4.21875 "/></g></g></g><g fill="#0e1446" fill-opacity="1"><g transform="translate(146.923788, 235.920838)"><g><path d="M 9.40625 -12.484375 L 9.40625 -10.8125 L 6.09375 -10.8125 L 6.09375 0 L 4.046875 0 L 4.046875 -10.8125 L 0.703125 -10.8125 L 0.703125 -12.484375 Z M 9.40625 -12.484375 "/></g></g></g><g fill="#0e1446" fill-opacity="1"><g transform="translate(157.481187, 235.920838)"><g><path d="M 7.03125 0.125 C 5.875 0.125 4.804688 -0.144531 3.828125 -0.6875 C 2.859375 -1.238281 2.085938 -2 1.515625 -2.96875 C 0.953125 -3.945312 0.671875 -5.046875 0.671875 -6.265625 C 0.671875 -7.484375 0.953125 -8.578125 1.515625 -9.546875 C 2.085938 -10.515625 2.859375 -11.269531 3.828125 -11.8125 C 4.804688 -12.363281 5.875 -12.640625 7.03125 -12.640625 C 8.207031 -12.640625 9.28125 -12.363281 10.25 -11.8125 C 11.226562 -11.269531 12 -10.515625 12.5625 -9.546875 C 13.125 -8.578125 13.40625 -7.484375 13.40625 -6.265625 C 13.40625 -5.046875 13.125 -3.945312 12.5625 -2.96875 C 12 -2 11.226562 -1.238281 10.25 -0.6875 C 9.28125 -0.144531 8.207031 0.125 7.03125 0.125 Z M 7.03125 -1.65625 C 7.863281 -1.65625 8.601562 -1.84375 9.25 -2.21875 C 9.894531 -2.59375 10.398438 -3.128906 10.765625 -3.828125 C 11.128906 -4.535156 11.3125 -5.347656 11.3125 -6.265625 C 11.3125 -7.179688 11.128906 -7.988281 10.765625 -8.6875 C 10.398438 -9.382812 9.894531 -9.914062 9.25 -10.28125 C 8.601562 -10.65625 7.863281 -10.84375 7.03125 -10.84375 C 6.207031 -10.84375 5.472656 -10.65625 4.828125 -10.28125 C 4.179688 -9.914062 3.675781 -9.382812 3.3125 -8.6875 C 2.945312 -7.988281 2.765625 -7.179688 2.765625 -6.265625 C 2.765625 -5.347656 2.945312 -4.535156 3.3125 -3.828125 C 3.675781 -3.128906 4.179688 -2.59375 4.828125 -2.21875 C 5.472656 -1.84375 6.207031 -1.65625 7.03125 -1.65625 Z M 7.03125 -1.65625 "/></g></g></g><g fill="#0e1446" fill-opacity="1"><g transform="translate(171.988565, 235.920838)"><g><path d="M 5.453125 0.125 C 4.617188 0.125 3.863281 -0.0195312 3.1875 -0.3125 C 2.519531 -0.601562 1.992188 -1.019531 1.609375 -1.5625 C 1.234375 -2.101562 1.046875 -2.734375 1.046875 -3.453125 L 3.234375 -3.453125 C 3.273438 -2.910156 3.484375 -2.460938 3.859375 -2.109375 C 4.242188 -1.765625 4.773438 -1.59375 5.453125 -1.59375 C 6.160156 -1.59375 6.710938 -1.765625 7.109375 -2.109375 C 7.503906 -2.453125 7.703125 -2.890625 7.703125 -3.421875 C 7.703125 -3.847656 7.578125 -4.191406 7.328125 -4.453125 C 7.085938 -4.710938 6.785156 -4.914062 6.421875 -5.0625 C 6.054688 -5.207031 5.550781 -5.363281 4.90625 -5.53125 C 4.09375 -5.75 3.429688 -5.96875 2.921875 -6.1875 C 2.410156 -6.40625 1.972656 -6.75 1.609375 -7.21875 C 1.253906 -7.6875 1.078125 -8.304688 1.078125 -9.078125 C 1.078125 -9.796875 1.253906 -10.425781 1.609375 -10.96875 C 1.972656 -11.507812 2.476562 -11.921875 3.125 -12.203125 C 3.769531 -12.492188 4.519531 -12.640625 5.375 -12.640625 C 6.582031 -12.640625 7.570312 -12.335938 8.34375 -11.734375 C 9.113281 -11.128906 9.539062 -10.300781 9.625 -9.25 L 7.359375 -9.25 C 7.328125 -9.695312 7.113281 -10.082031 6.71875 -10.40625 C 6.320312 -10.726562 5.800781 -10.890625 5.15625 -10.890625 C 4.5625 -10.890625 4.078125 -10.738281 3.703125 -10.4375 C 3.335938 -10.144531 3.15625 -9.71875 3.15625 -9.15625 C 3.15625 -8.769531 3.269531 -8.453125 3.5 -8.203125 C 3.738281 -7.960938 4.035156 -7.769531 4.390625 -7.625 C 4.753906 -7.488281 5.25 -7.332031 5.875 -7.15625 C 6.695312 -6.9375 7.367188 -6.710938 7.890625 -6.484375 C 8.410156 -6.253906 8.851562 -5.898438 9.21875 -5.421875 C 9.582031 -4.953125 9.765625 -4.320312 9.765625 -3.53125 C 9.765625 -2.894531 9.59375 -2.296875 9.25 -1.734375 C 8.914062 -1.171875 8.421875 -0.71875 7.765625 -0.375 C 7.109375 -0.0390625 6.335938 0.125 5.453125 0.125 Z M 5.453125 0.125 "/></g></g></g><g fill="#0e1446" fill-opacity="1"><g transform="translate(183.264136, 235.920838)"><g/></g></g><g fill="#0e1446" fill-opacity="1"><g transform="translate(188.36339, 235.920838)"><g><path d="M 5.71875 -16.34375 L 7 -16.34375 L 7 5.4375 L 5.71875 5.4375 Z M 5.71875 -16.34375 "/></g></g></g><g fill="#0e1446" fill-opacity="1"><g transform="translate(201.515177, 235.920838)"><g/></g></g><g fill="#0e1446" fill-opacity="1"><g transform="translate(206.614428, 235.920838)"><g><path d="M 3.390625 -10.828125 L 3.390625 -7.15625 L 7.703125 -7.15625 L 7.703125 -5.5 L 3.390625 -5.5 L 3.390625 -1.671875 L 8.234375 -1.671875 L 8.234375 0 L 1.34375 0 L 1.34375 -12.5 L 8.234375 -12.5 L 8.234375 -10.828125 Z M 3.390625 -10.828125 "/></g></g></g><g fill="#0e1446" fill-opacity="1"><g transform="translate(216.453642, 235.920838)"><g><path d="M 5.421875 -12.484375 C 6.753906 -12.484375 7.914062 -12.226562 8.90625 -11.71875 C 9.90625 -11.207031 10.675781 -10.472656 11.21875 -9.515625 C 11.769531 -8.566406 12.046875 -7.457031 12.046875 -6.1875 C 12.046875 -4.925781 11.769531 -3.828125 11.21875 -2.890625 C 10.675781 -1.953125 9.90625 -1.234375 8.90625 -0.734375 C 7.914062 -0.242188 6.753906 0 5.421875 0 L 1.34375 0 L 1.34375 -12.484375 Z M 5.421875 -1.671875 C 6.878906 -1.671875 8 -2.066406 8.78125 -2.859375 C 9.5625 -3.648438 9.953125 -4.757812 9.953125 -6.1875 C 9.953125 -7.632812 9.5625 -8.765625 8.78125 -9.578125 C 8 -10.398438 6.878906 -10.8125 5.421875 -10.8125 L 3.390625 -10.8125 L 3.390625 -1.671875 Z M 5.421875 -1.671875 "/></g></g></g><g fill="#0e1446" fill-opacity="1"><g transform="translate(229.614438, 235.920838)"><g><path d="M 3.375 -12.484375 L 3.375 -4.53125 C 3.375 -3.582031 3.617188 -2.867188 4.109375 -2.390625 C 4.609375 -1.910156 5.300781 -1.671875 6.1875 -1.671875 C 7.09375 -1.671875 7.789062 -1.910156 8.28125 -2.390625 C 8.78125 -2.867188 9.03125 -3.582031 9.03125 -4.53125 L 9.03125 -12.484375 L 11.078125 -12.484375 L 11.078125 -4.5625 C 11.078125 -3.539062 10.851562 -2.675781 10.40625 -1.96875 C 9.96875 -1.269531 9.375 -0.742188 8.625 -0.390625 C 7.882812 -0.046875 7.066406 0.125 6.171875 0.125 C 5.273438 0.125 4.457031 -0.046875 3.71875 -0.390625 C 2.988281 -0.742188 2.40625 -1.269531 1.96875 -1.96875 C 1.539062 -2.675781 1.328125 -3.539062 1.328125 -4.5625 L 1.328125 -12.484375 Z M 3.375 -12.484375 "/></g></g></g><g fill="#0e1446" fill-opacity="1"><g transform="translate(242.434098, 235.920838)"><g><path d="M 0.671875 -6.265625 C 0.671875 -7.484375 0.953125 -8.578125 1.515625 -9.546875 C 2.085938 -10.515625 2.859375 -11.269531 3.828125 -11.8125 C 4.804688 -12.363281 5.875 -12.640625 7.03125 -12.640625 C 8.363281 -12.640625 9.546875 -12.3125 10.578125 -11.65625 C 11.617188 -11.007812 12.375 -10.085938 12.84375 -8.890625 L 10.375 -8.890625 C 10.050781 -9.546875 9.601562 -10.035156 9.03125 -10.359375 C 8.457031 -10.679688 7.789062 -10.84375 7.03125 -10.84375 C 6.207031 -10.84375 5.472656 -10.65625 4.828125 -10.28125 C 4.179688 -9.914062 3.675781 -9.382812 3.3125 -8.6875 C 2.945312 -7.988281 2.765625 -7.179688 2.765625 -6.265625 C 2.765625 -5.347656 2.945312 -4.539062 3.3125 -3.84375 C 3.675781 -3.144531 4.179688 -2.609375 4.828125 -2.234375 C 5.472656 -1.859375 6.207031 -1.671875 7.03125 -1.671875 C 7.789062 -1.671875 8.457031 -1.832031 9.03125 -2.15625 C 9.601562 -2.476562 10.050781 -2.96875 10.375 -3.625 L 12.84375 -3.625 C 12.375 -2.425781 11.617188 -1.503906 10.578125 -0.859375 C 9.546875 -0.210938 8.363281 0.109375 7.03125 0.109375 C 5.863281 0.109375 4.796875 -0.160156 3.828125 -0.703125 C 2.859375 -1.253906 2.085938 -2.015625 1.515625 -2.984375 C 0.953125 -3.953125 0.671875 -5.046875 0.671875 -6.265625 Z M 0.671875 -6.265625 "/></g></g></g><g fill="#0e1446" fill-opacity="1"><g transform="translate(256.74398, 235.920838)"><g><path d="M 8.875 -2.546875 L 3.640625 -2.546875 L 2.75 0 L 0.609375 0 L 5.078125 -12.5 L 7.453125 -12.5 L 11.921875 0 L 9.765625 0 Z M 8.296875 -4.21875 L 6.265625 -10.015625 L 4.21875 -4.21875 Z M 8.296875 -4.21875 "/></g></g></g><g fill="#0e1446" fill-opacity="1"><g transform="translate(269.689315, 235.920838)"><g><path d="M 5.421875 -12.484375 C 6.753906 -12.484375 7.914062 -12.226562 8.90625 -11.71875 C 9.90625 -11.207031 10.675781 -10.472656 11.21875 -9.515625 C 11.769531 -8.566406 12.046875 -7.457031 12.046875 -6.1875 C 12.046875 -4.925781 11.769531 -3.828125 11.21875 -2.890625 C 10.675781 -1.953125 9.90625 -1.234375 8.90625 -0.734375 C 7.914062 -0.242188 6.753906 0 5.421875 0 L 1.34375 0 L 1.34375 -12.484375 Z M 5.421875 -1.671875 C 6.878906 -1.671875 8 -2.066406 8.78125 -2.859375 C 9.5625 -3.648438 9.953125 -4.757812 9.953125 -6.1875 C 9.953125 -7.632812 9.5625 -8.765625 8.78125 -9.578125 C 8 -10.398438 6.878906 -10.8125 5.421875 -10.8125 L 3.390625 -10.8125 L 3.390625 -1.671875 Z M 5.421875 -1.671875 "/></g></g></g><g fill="#0e1446" fill-opacity="1"><g transform="translate(282.850111, 235.920838)"><g><path d="M 7.03125 0.125 C 5.875 0.125 4.804688 -0.144531 3.828125 -0.6875 C 2.859375 -1.238281 2.085938 -2 1.515625 -2.96875 C 0.953125 -3.945312 0.671875 -5.046875 0.671875 -6.265625 C 0.671875 -7.484375 0.953125 -8.578125 1.515625 -9.546875 C 2.085938 -10.515625 2.859375 -11.269531 3.828125 -11.8125 C 4.804688 -12.363281 5.875 -12.640625 7.03125 -12.640625 C 8.207031 -12.640625 9.28125 -12.363281 10.25 -11.8125 C 11.226562 -11.269531 12 -10.515625 12.5625 -9.546875 C 13.125 -8.578125 13.40625 -7.484375 13.40625 -6.265625 C 13.40625 -5.046875 13.125 -3.945312 12.5625 -2.96875 C 12 -2 11.226562 -1.238281 10.25 -0.6875 C 9.28125 -0.144531 8.207031 0.125 7.03125 0.125 Z M 7.03125 -1.65625 C 7.863281 -1.65625 8.601562 -1.84375 9.25 -2.21875 C 9.894531 -2.59375 10.398438 -3.128906 10.765625 -3.828125 C 11.128906 -4.535156 11.3125 -5.347656 11.3125 -6.265625 C 11.3125 -7.179688 11.128906 -7.988281 10.765625 -8.6875 C 10.398438 -9.382812 9.894531 -9.914062 9.25 -10.28125 C 8.601562 -10.65625 7.863281 -10.84375 7.03125 -10.84375 C 6.207031 -10.84375 5.472656 -10.65625 4.828125 -10.28125 C 4.179688 -9.914062 3.675781 -9.382812 3.3125 -8.6875 C 2.945312 -7.988281 2.765625 -7.179688 2.765625 -6.265625 C 2.765625 -5.347656 2.945312 -4.535156 3.3125 -3.828125 C 3.675781 -3.128906 4.179688 -2.59375 4.828125 -2.21875 C 5.472656 -1.84375 6.207031 -1.65625 7.03125 -1.65625 Z M 7.03125 -1.65625 "/></g></g></g><g fill="#0e1446" fill-opacity="1"><g transform="translate(297.357489, 235.920838)"><g><path d="M 7.828125 0 L 4.953125 -4.984375 L 3.390625 -4.984375 L 3.390625 0 L 1.34375 0 L 1.34375 -12.484375 L 5.65625 -12.484375 C 6.613281 -12.484375 7.421875 -12.3125 8.078125 -11.96875 C 8.742188 -11.632812 9.242188 -11.1875 9.578125 -10.625 C 9.910156 -10.0625 10.078125 -9.4375 10.078125 -8.75 C 10.078125 -7.925781 9.835938 -7.179688 9.359375 -6.515625 C 8.890625 -5.859375 8.164062 -5.410156 7.1875 -5.171875 L 10.265625 0 Z M 3.390625 -6.625 L 5.65625 -6.625 C 6.414062 -6.625 6.988281 -6.816406 7.375 -7.203125 C 7.769531 -7.585938 7.96875 -8.101562 7.96875 -8.75 C 7.96875 -9.394531 7.773438 -9.898438 7.390625 -10.265625 C 7.015625 -10.628906 6.4375 -10.8125 5.65625 -10.8125 L 3.390625 -10.8125 Z M 3.390625 -6.625 "/></g></g></g><g fill="#0e1446" fill-opacity="1"><g transform="translate(309.142127, 235.920838)"><g/></g></g><g fill="#0e1446" fill-opacity="1"><g transform="translate(0.0000153351, 260.842487)"><g><path d="M 3.390625 -1.65625 L 7.609375 -1.65625 L 7.609375 0 L 1.34375 0 L 1.34375 -12.484375 L 3.390625 -12.484375 Z M 3.390625 -1.65625 "/></g></g></g><g fill="#0e1446" fill-opacity="1"><g transform="translate(8.402874, 260.842487)"><g><path d="M 3.390625 -12.484375 L 3.390625 0 L 1.34375 0 L 1.34375 -12.484375 Z M 4.21875 -15.15625 L 0.25 -13.203125 L 0.25 -14.703125 L 4.21875 -16.90625 Z M 4.21875 -15.15625 "/></g></g></g><g fill="#0e1446" fill-opacity="1"><g transform="translate(13.573936, 260.842487)"><g><path d="M 5.421875 -12.484375 C 6.753906 -12.484375 7.914062 -12.226562 8.90625 -11.71875 C 9.90625 -11.207031 10.675781 -10.472656 11.21875 -9.515625 C 11.769531 -8.566406 12.046875 -7.457031 12.046875 -6.1875 C 12.046875 -4.925781 11.769531 -3.828125 11.21875 -2.890625 C 10.675781 -1.953125 9.90625 -1.234375 8.90625 -0.734375 C 7.914062 -0.242188 6.753906 0 5.421875 0 L 1.34375 0 L 1.34375 -12.484375 Z M 5.421875 -1.671875 C 6.878906 -1.671875 8 -2.066406 8.78125 -2.859375 C 9.5625 -3.648438 9.953125 -4.757812 9.953125 -6.1875 C 9.953125 -7.632812 9.5625 -8.765625 8.78125 -9.578125 C 8 -10.398438 6.878906 -10.8125 5.421875 -10.8125 L 3.390625 -10.8125 L 3.390625 -1.671875 Z M 5.421875 -1.671875 "/></g></g></g><g fill="#0e1446" fill-opacity="1"><g transform="translate(26.734735, 260.842487)"><g><path d="M 3.390625 -10.828125 L 3.390625 -7.15625 L 7.703125 -7.15625 L 7.703125 -5.5 L 3.390625 -5.5 L 3.390625 -1.671875 L 8.234375 -1.671875 L 8.234375 0 L 1.34375 0 L 1.34375 -12.5 L 8.234375 -12.5 L 8.234375 -10.828125 Z M 3.390625 -10.828125 "/></g></g></g><g fill="#0e1446" fill-opacity="1"><g transform="translate(36.573949, 260.842487)"><g><path d="M 7.828125 0 L 4.953125 -4.984375 L 3.390625 -4.984375 L 3.390625 0 L 1.34375 0 L 1.34375 -12.484375 L 5.65625 -12.484375 C 6.613281 -12.484375 7.421875 -12.3125 8.078125 -11.96875 C 8.742188 -11.632812 9.242188 -11.1875 9.578125 -10.625 C 9.910156 -10.0625 10.078125 -9.4375 10.078125 -8.75 C 10.078125 -7.925781 9.835938 -7.179688 9.359375 -6.515625 C 8.890625 -5.859375 8.164062 -5.410156 7.1875 -5.171875 L 10.265625 0 Z M 3.390625 -6.625 L 5.65625 -6.625 C 6.414062 -6.625 6.988281 -6.816406 7.375 -7.203125 C 7.769531 -7.585938 7.96875 -8.101562 7.96875 -8.75 C 7.96875 -9.394531 7.773438 -9.898438 7.390625 -10.265625 C 7.015625 -10.628906 6.4375 -10.8125 5.65625 -10.8125 L 3.390625 -10.8125 Z M 3.390625 -6.625 "/></g></g></g><g fill="#0e1446" fill-opacity="1"><g transform="translate(48.352253, 260.842487)"><g/></g></g><g fill="#0e1446" fill-opacity="1"><g transform="translate(53.451494, 260.842487)"><g><path d="M 5.421875 -12.484375 C 6.753906 -12.484375 7.914062 -12.226562 8.90625 -11.71875 C 9.90625 -11.207031 10.675781 -10.472656 11.21875 -9.515625 C 11.769531 -8.566406 12.046875 -7.457031 12.046875 -6.1875 C 12.046875 -4.925781 11.769531 -3.828125 11.21875 -2.890625 C 10.675781 -1.953125 9.90625 -1.234375 8.90625 -0.734375 C 7.914062 -0.242188 6.753906 0 5.421875 0 L 1.34375 0 L 1.34375 -12.484375 Z M 5.421875 -1.671875 C 6.878906 -1.671875 8 -2.066406 8.78125 -2.859375 C 9.5625 -3.648438 9.953125 -4.757812 9.953125 -6.1875 C 9.953125 -7.632812 9.5625 -8.765625 8.78125 -9.578125 C 8 -10.398438 6.878906 -10.8125 5.421875 -10.8125 L 3.390625 -10.8125 L 3.390625 -1.671875 Z M 5.421875 -1.671875 "/></g></g></g><g fill="#0e1446" fill-opacity="1"><g transform="translate(66.61229, 260.842487)"><g><path d="M 3.390625 -10.828125 L 3.390625 -7.15625 L 7.703125 -7.15625 L 7.703125 -5.5 L 3.390625 -5.5 L 3.390625 -1.671875 L 8.234375 -1.671875 L 8.234375 0 L 1.34375 0 L 1.34375 -12.5 L 8.234375 -12.5 L 8.234375 -10.828125 Z M 3.390625 -10.828125 "/></g></g></g><g fill="#0e1446" fill-opacity="1"><g transform="translate(76.451504, 260.842487)"><g/></g></g><g fill="#0e1446" fill-opacity="1"><g transform="translate(81.550745, 260.842487)"><g><path d="M 10.078125 -8.765625 C 10.078125 -8.128906 9.925781 -7.53125 9.625 -6.96875 C 9.320312 -6.40625 8.84375 -5.945312 8.1875 -5.59375 C 7.53125 -5.238281 6.6875 -5.0625 5.65625 -5.0625 L 3.390625 -5.0625 L 3.390625 0 L 1.34375 0 L 1.34375 -12.484375 L 5.65625 -12.484375 C 6.613281 -12.484375 7.421875 -12.316406 8.078125 -11.984375 C 8.742188 -11.648438 9.242188 -11.203125 9.578125 -10.640625 C 9.910156 -10.078125 10.078125 -9.453125 10.078125 -8.765625 Z M 5.65625 -6.734375 C 6.4375 -6.734375 7.015625 -6.910156 7.390625 -7.265625 C 7.773438 -7.617188 7.96875 -8.117188 7.96875 -8.765625 C 7.96875 -10.128906 7.195312 -10.8125 5.65625 -10.8125 L 3.390625 -10.8125 L 3.390625 -6.734375 Z M 5.65625 -6.734375 "/></g></g></g><g fill="#0e1446" fill-opacity="1"><g transform="translate(92.664736, 260.842487)"><g><path d="M 7.828125 0 L 4.953125 -4.984375 L 3.390625 -4.984375 L 3.390625 0 L 1.34375 0 L 1.34375 -12.484375 L 5.65625 -12.484375 C 6.613281 -12.484375 7.421875 -12.3125 8.078125 -11.96875 C 8.742188 -11.632812 9.242188 -11.1875 9.578125 -10.625 C 9.910156 -10.0625 10.078125 -9.4375 10.078125 -8.75 C 10.078125 -7.925781 9.835938 -7.179688 9.359375 -6.515625 C 8.890625 -5.859375 8.164062 -5.410156 7.1875 -5.171875 L 10.265625 0 Z M 3.390625 -6.625 L 5.65625 -6.625 C 6.414062 -6.625 6.988281 -6.816406 7.375 -7.203125 C 7.769531 -7.585938 7.96875 -8.101562 7.96875 -8.75 C 7.96875 -9.394531 7.773438 -9.898438 7.390625 -10.265625 C 7.015625 -10.628906 6.4375 -10.8125 5.65625 -10.8125 L 3.390625 -10.8125 Z M 3.390625 -6.625 "/></g></g></g><g fill="#0e1446" fill-opacity="1"><g transform="translate(104.44304, 260.842487)"><g><path d="M 7.03125 0.125 C 5.875 0.125 4.804688 -0.144531 3.828125 -0.6875 C 2.859375 -1.238281 2.085938 -2 1.515625 -2.96875 C 0.953125 -3.945312 0.671875 -5.046875 0.671875 -6.265625 C 0.671875 -7.484375 0.953125 -8.578125 1.515625 -9.546875 C 2.085938 -10.515625 2.859375 -11.269531 3.828125 -11.8125 C 4.804688 -12.363281 5.875 -12.640625 7.03125 -12.640625 C 8.207031 -12.640625 9.28125 -12.363281 10.25 -11.8125 C 11.226562 -11.269531 12 -10.515625 12.5625 -9.546875 C 13.125 -8.578125 13.40625 -7.484375 13.40625 -6.265625 C 13.40625 -5.046875 13.125 -3.945312 12.5625 -2.96875 C 12 -2 11.226562 -1.238281 10.25 -0.6875 C 9.28125 -0.144531 8.207031 0.125 7.03125 0.125 Z M 7.03125 -1.65625 C 7.863281 -1.65625 8.601562 -1.84375 9.25 -2.21875 C 9.894531 -2.59375 10.398438 -3.128906 10.765625 -3.828125 C 11.128906 -4.535156 11.3125 -5.347656 11.3125 -6.265625 C 11.3125 -7.179688 11.128906 -7.988281 10.765625 -8.6875 C 10.398438 -9.382812 9.894531 -9.914062 9.25 -10.28125 C 8.601562 -10.65625 7.863281 -10.84375 7.03125 -10.84375 C 6.207031 -10.84375 5.472656 -10.65625 4.828125 -10.28125 C 4.179688 -9.914062 3.675781 -9.382812 3.3125 -8.6875 C 2.945312 -7.988281 2.765625 -7.179688 2.765625 -6.265625 C 2.765625 -5.347656 2.945312 -4.535156 3.3125 -3.828125 C 3.675781 -3.128906 4.179688 -2.59375 4.828125 -2.21875 C 5.472656 -1.84375 6.207031 -1.65625 7.03125 -1.65625 Z M 7.03125 -1.65625 "/></g></g></g><g fill="#0e1446" fill-opacity="1"><g transform="translate(118.950418, 260.842487)"><g><path d="M 10.59375 -12.484375 L 6.46875 -4.53125 L 6.46875 0 L 4.421875 0 L 4.421875 -4.53125 L 0.265625 -12.484375 L 2.546875 -12.484375 L 5.4375 -6.359375 L 8.328125 -12.484375 Z M 10.59375 -12.484375 "/></g></g></g><g fill="#0e1446" fill-opacity="1"><g transform="translate(130.243945, 260.842487)"><g><path d="M 3.390625 -10.828125 L 3.390625 -7.15625 L 7.703125 -7.15625 L 7.703125 -5.5 L 3.390625 -5.5 L 3.390625 -1.671875 L 8.234375 -1.671875 L 8.234375 0 L 1.34375 0 L 1.34375 -12.5 L 8.234375 -12.5 L 8.234375 -10.828125 Z M 3.390625 -10.828125 "/></g></g></g><g fill="#0e1446" fill-opacity="1"><g transform="translate(140.083159, 260.842487)"><g><path d="M 0.671875 -6.265625 C 0.671875 -7.484375 0.953125 -8.578125 1.515625 -9.546875 C 2.085938 -10.515625 2.859375 -11.269531 3.828125 -11.8125 C 4.804688 -12.363281 5.875 -12.640625 7.03125 -12.640625 C 8.363281 -12.640625 9.546875 -12.3125 10.578125 -11.65625 C 11.617188 -11.007812 12.375 -10.085938 12.84375 -8.890625 L 10.375 -8.890625 C 10.050781 -9.546875 9.601562 -10.035156 9.03125 -10.359375 C 8.457031 -10.679688 7.789062 -10.84375 7.03125 -10.84375 C 6.207031 -10.84375 5.472656 -10.65625 4.828125 -10.28125 C 4.179688 -9.914062 3.675781 -9.382812 3.3125 -8.6875 C 2.945312 -7.988281 2.765625 -7.179688 2.765625 -6.265625 C 2.765625 -5.347656 2.945312 -4.539062 3.3125 -3.84375 C 3.675781 -3.144531 4.179688 -2.609375 4.828125 -2.234375 C 5.472656 -1.859375 6.207031 -1.671875 7.03125 -1.671875 C 7.789062 -1.671875 8.457031 -1.832031 9.03125 -2.15625 C 9.601562 -2.476562 10.050781 -2.96875 10.375 -3.625 L 12.84375 -3.625 C 12.375 -2.425781 11.617188 -1.503906 10.578125 -0.859375 C 9.546875 -0.210938 8.363281 0.109375 7.03125 0.109375 C 5.863281 0.109375 4.796875 -0.160156 3.828125 -0.703125 C 2.859375 -1.253906 2.085938 -2.015625 1.515625 -2.984375 C 0.953125 -3.953125 0.671875 -5.046875 0.671875 -6.265625 Z M 0.671875 -6.265625 "/></g></g></g><g fill="#0e1446" fill-opacity="1"><g transform="translate(154.393041, 260.842487)"><g><path d="M 9.40625 -12.484375 L 9.40625 -10.8125 L 6.09375 -10.8125 L 6.09375 0 L 4.046875 0 L 4.046875 -10.8125 L 0.703125 -10.8125 L 0.703125 -12.484375 Z M 9.40625 -12.484375 "/></g></g></g><g fill="#0e1446" fill-opacity="1"><g transform="translate(164.950439, 260.842487)"><g><path d="M 7.03125 0.125 C 5.875 0.125 4.804688 -0.144531 3.828125 -0.6875 C 2.859375 -1.238281 2.085938 -2 1.515625 -2.96875 C 0.953125 -3.945312 0.671875 -5.046875 0.671875 -6.265625 C 0.671875 -7.484375 0.953125 -8.578125 1.515625 -9.546875 C 2.085938 -10.515625 2.859375 -11.269531 3.828125 -11.8125 C 4.804688 -12.363281 5.875 -12.640625 7.03125 -12.640625 C 8.207031 -12.640625 9.28125 -12.363281 10.25 -11.8125 C 11.226562 -11.269531 12 -10.515625 12.5625 -9.546875 C 13.125 -8.578125 13.40625 -7.484375 13.40625 -6.265625 C 13.40625 -5.046875 13.125 -3.945312 12.5625 -2.96875 C 12 -2 11.226562 -1.238281 10.25 -0.6875 C 9.28125 -0.144531 8.207031 0.125 7.03125 0.125 Z M 7.03125 -1.65625 C 7.863281 -1.65625 8.601562 -1.84375 9.25 -2.21875 C 9.894531 -2.59375 10.398438 -3.128906 10.765625 -3.828125 C 11.128906 -4.535156 11.3125 -5.347656 11.3125 -6.265625 C 11.3125 -7.179688 11.128906 -7.988281 10.765625 -8.6875 C 10.398438 -9.382812 9.894531 -9.914062 9.25 -10.28125 C 8.601562 -10.65625 7.863281 -10.84375 7.03125 -10.84375 C 6.207031 -10.84375 5.472656 -10.65625 4.828125 -10.28125 C 4.179688 -9.914062 3.675781 -9.382812 3.3125 -8.6875 C 2.945312 -7.988281 2.765625 -7.179688 2.765625 -6.265625 C 2.765625 -5.347656 2.945312 -4.535156 3.3125 -3.828125 C 3.675781 -3.128906 4.179688 -2.59375 4.828125 -2.21875 C 5.472656 -1.84375 6.207031 -1.65625 7.03125 -1.65625 Z M 7.03125 -1.65625 "/></g></g></g><g fill="#0e1446" fill-opacity="1"><g transform="translate(179.457818, 260.842487)"><g><path d="M 5.453125 0.125 C 4.617188 0.125 3.863281 -0.0195312 3.1875 -0.3125 C 2.519531 -0.601562 1.992188 -1.019531 1.609375 -1.5625 C 1.234375 -2.101562 1.046875 -2.734375 1.046875 -3.453125 L 3.234375 -3.453125 C 3.273438 -2.910156 3.484375 -2.460938 3.859375 -2.109375 C 4.242188 -1.765625 4.773438 -1.59375 5.453125 -1.59375 C 6.160156 -1.59375 6.710938 -1.765625 7.109375 -2.109375 C 7.503906 -2.453125 7.703125 -2.890625 7.703125 -3.421875 C 7.703125 -3.847656 7.578125 -4.191406 7.328125 -4.453125 C 7.085938 -4.710938 6.785156 -4.914062 6.421875 -5.0625 C 6.054688 -5.207031 5.550781 -5.363281 4.90625 -5.53125 C 4.09375 -5.75 3.429688 -5.96875 2.921875 -6.1875 C 2.410156 -6.40625 1.972656 -6.75 1.609375 -7.21875 C 1.253906 -7.6875 1.078125 -8.304688 1.078125 -9.078125 C 1.078125 -9.796875 1.253906 -10.425781 1.609375 -10.96875 C 1.972656 -11.507812 2.476562 -11.921875 3.125 -12.203125 C 3.769531 -12.492188 4.519531 -12.640625 5.375 -12.640625 C 6.582031 -12.640625 7.570312 -12.335938 8.34375 -11.734375 C 9.113281 -11.128906 9.539062 -10.300781 9.625 -9.25 L 7.359375 -9.25 C 7.328125 -9.695312 7.113281 -10.082031 6.71875 -10.40625 C 6.320312 -10.726562 5.800781 -10.890625 5.15625 -10.890625 C 4.5625 -10.890625 4.078125 -10.738281 3.703125 -10.4375 C 3.335938 -10.144531 3.15625 -9.71875 3.15625 -9.15625 C 3.15625 -8.769531 3.269531 -8.453125 3.5 -8.203125 C 3.738281 -7.960938 4.035156 -7.769531 4.390625 -7.625 C 4.753906 -7.488281 5.25 -7.332031 5.875 -7.15625 C 6.695312 -6.9375 7.367188 -6.710938 7.890625 -6.484375 C 8.410156 -6.253906 8.851562 -5.898438 9.21875 -5.421875 C 9.582031 -4.953125 9.765625 -4.320312 9.765625 -3.53125 C 9.765625 -2.894531 9.59375 -2.296875 9.25 -1.734375 C 8.914062 -1.171875 8.421875 -0.71875 7.765625 -0.375 C 7.109375 -0.0390625 6.335938 0.125 5.453125 0.125 Z M 5.453125 0.125 "/></g></g></g><g fill="#0e1446" fill-opacity="1"><g transform="translate(190.743245, 260.842487)"><g/></g></g><g fill="#0e1446" fill-opacity="1"><g transform="translate(0.0000153351, 285.764136)"><g><path d="M 5.421875 -12.484375 C 6.753906 -12.484375 7.914062 -12.226562 8.90625 -11.71875 C 9.90625 -11.207031 10.675781 -10.472656 11.21875 -9.515625 C 11.769531 -8.566406 12.046875 -7.457031 12.046875 -6.1875 C 12.046875 -4.925781 11.769531 -3.828125 11.21875 -2.890625 C 10.675781 -1.953125 9.90625 -1.234375 8.90625 -0.734375 C 7.914062 -0.242188 6.753906 0 5.421875 0 L 1.34375 0 L 1.34375 -12.484375 Z M 5.421875 -1.671875 C 6.878906 -1.671875 8 -2.066406 8.78125 -2.859375 C 9.5625 -3.648438 9.953125 -4.757812 9.953125 -6.1875 C 9.953125 -7.632812 9.5625 -8.765625 8.78125 -9.578125 C 8 -10.398438 6.878906 -10.8125 5.421875 -10.8125 L 3.390625 -10.8125 L 3.390625 -1.671875 Z M 5.421875 -1.671875 "/></g></g></g><g fill="#0e1446" fill-opacity="1"><g transform="translate(13.160813, 285.764136)"><g><path d="M 3.390625 -12.484375 L 3.390625 0 L 1.34375 0 L 1.34375 -12.484375 Z M 3.390625 -12.484375 "/></g></g></g><g fill="#0e1446" fill-opacity="1"><g transform="translate(18.331875, 285.764136)"><g><path d="M 12.09375 -12.484375 L 7.421875 0 L 5.046875 0 L 0.34375 -12.484375 L 2.53125 -12.484375 L 6.234375 -2.09375 L 9.953125 -12.484375 Z M 12.09375 -12.484375 "/></g></g></g><g fill="#0e1446" fill-opacity="1"><g transform="translate(31.223358, 285.764136)"><g><path d="M 3.375 -12.484375 L 3.375 -4.53125 C 3.375 -3.582031 3.617188 -2.867188 4.109375 -2.390625 C 4.609375 -1.910156 5.300781 -1.671875 6.1875 -1.671875 C 7.09375 -1.671875 7.789062 -1.910156 8.28125 -2.390625 C 8.78125 -2.867188 9.03125 -3.582031 9.03125 -4.53125 L 9.03125 -12.484375 L 11.078125 -12.484375 L 11.078125 -4.5625 C 11.078125 -3.539062 10.851562 -2.675781 10.40625 -1.96875 C 9.96875 -1.269531 9.375 -0.742188 8.625 -0.390625 C 7.882812 -0.046875 7.066406 0.125 6.171875 0.125 C 5.273438 0.125 4.457031 -0.046875 3.71875 -0.390625 C 2.988281 -0.742188 2.40625 -1.269531 1.96875 -1.96875 C 1.539062 -2.675781 1.328125 -3.539062 1.328125 -4.5625 L 1.328125 -12.484375 Z M 3.375 -12.484375 "/></g></g></g><g fill="#0e1446" fill-opacity="1"><g transform="translate(44.043017, 285.764136)"><g><path d="M 3.390625 -1.65625 L 7.609375 -1.65625 L 7.609375 0 L 1.34375 0 L 1.34375 -12.484375 L 3.390625 -12.484375 Z M 3.390625 -1.65625 "/></g></g></g><g fill="#0e1446" fill-opacity="1"><g transform="translate(52.445874, 285.764136)"><g><path d="M 10.375 -8.890625 C 10.050781 -9.515625 9.601562 -9.984375 9.03125 -10.296875 C 8.457031 -10.609375 7.789062 -10.765625 7.03125 -10.765625 C 6.207031 -10.765625 5.472656 -10.578125 4.828125 -10.203125 C 4.179688 -9.835938 3.675781 -9.3125 3.3125 -8.625 C 2.945312 -7.945312 2.765625 -7.160156 2.765625 -6.265625 C 2.765625 -5.367188 2.945312 -4.578125 3.3125 -3.890625 C 3.675781 -3.203125 4.179688 -2.671875 4.828125 -2.296875 C 5.472656 -1.921875 6.207031 -1.734375 7.03125 -1.734375 C 8.144531 -1.734375 9.050781 -2.046875 9.75 -2.671875 C 10.445312 -3.296875 10.867188 -4.140625 11.015625 -5.203125 L 6.34375 -5.203125 L 6.34375 -6.84375 L 13.21875 -6.84375 L 13.21875 -5.25 C 13.082031 -4.269531 12.734375 -3.375 12.171875 -2.5625 C 11.617188 -1.75 10.894531 -1.097656 10 -0.609375 C 9.113281 -0.128906 8.125 0.109375 7.03125 0.109375 C 5.863281 0.109375 4.796875 -0.160156 3.828125 -0.703125 C 2.859375 -1.253906 2.085938 -2.015625 1.515625 -2.984375 C 0.953125 -3.953125 0.671875 -5.046875 0.671875 -6.265625 C 0.671875 -7.484375 0.953125 -8.578125 1.515625 -9.546875 C 2.085938 -10.515625 2.859375 -11.269531 3.828125 -11.8125 C 4.804688 -12.363281 5.875 -12.640625 7.03125 -12.640625 C 8.363281 -12.640625 9.546875 -12.3125 10.578125 -11.65625 C 11.617188 -11.007812 12.375 -10.085938 12.84375 -8.890625 Z M 10.375 -8.890625 "/></g></g></g><g fill="#0e1446" fill-opacity="1"><g transform="translate(66.755756, 285.764136)"><g><path d="M 8.875 -2.546875 L 3.640625 -2.546875 L 2.75 0 L 0.609375 0 L 5.078125 -12.5 L 7.453125 -12.5 L 11.921875 0 L 9.765625 0 Z M 8.296875 -4.21875 L 6.265625 -10.015625 L 4.21875 -4.21875 Z M 8.296875 -4.21875 "/></g></g></g><g fill="#0e1446" fill-opacity="1"><g transform="translate(79.701092, 285.764136)"><g><path d="M 5.421875 -12.484375 C 6.753906 -12.484375 7.914062 -12.226562 8.90625 -11.71875 C 9.90625 -11.207031 10.675781 -10.472656 11.21875 -9.515625 C 11.769531 -8.566406 12.046875 -7.457031 12.046875 -6.1875 C 12.046875 -4.925781 11.769531 -3.828125 11.21875 -2.890625 C 10.675781 -1.953125 9.90625 -1.234375 8.90625 -0.734375 C 7.914062 -0.242188 6.753906 0 5.421875 0 L 1.34375 0 L 1.34375 -12.484375 Z M 5.421875 -1.671875 C 6.878906 -1.671875 8 -2.066406 8.78125 -2.859375 C 9.5625 -3.648438 9.953125 -4.757812 9.953125 -6.1875 C 9.953125 -7.632812 9.5625 -8.765625 8.78125 -9.578125 C 8 -10.398438 6.878906 -10.8125 5.421875 -10.8125 L 3.390625 -10.8125 L 3.390625 -1.671875 Z M 5.421875 -1.671875 "/></g></g></g><g fill="#0e1446" fill-opacity="1"><g transform="translate(92.861893, 285.764136)"><g><path d="M 7.03125 0.125 C 5.875 0.125 4.804688 -0.144531 3.828125 -0.6875 C 2.859375 -1.238281 2.085938 -2 1.515625 -2.96875 C 0.953125 -3.945312 0.671875 -5.046875 0.671875 -6.265625 C 0.671875 -7.484375 0.953125 -8.578125 1.515625 -9.546875 C 2.085938 -10.515625 2.859375 -11.269531 3.828125 -11.8125 C 4.804688 -12.363281 5.875 -12.640625 7.03125 -12.640625 C 8.207031 -12.640625 9.28125 -12.363281 10.25 -11.8125 C 11.226562 -11.269531 12 -10.515625 12.5625 -9.546875 C 13.125 -8.578125 13.40625 -7.484375 13.40625 -6.265625 C 13.40625 -5.046875 13.125 -3.945312 12.5625 -2.96875 C 12 -2 11.226562 -1.238281 10.25 -0.6875 C 9.28125 -0.144531 8.207031 0.125 7.03125 0.125 Z M 7.03125 -1.65625 C 7.863281 -1.65625 8.601562 -1.84375 9.25 -2.21875 C 9.894531 -2.59375 10.398438 -3.128906 10.765625 -3.828125 C 11.128906 -4.535156 11.3125 -5.347656 11.3125 -6.265625 C 11.3125 -7.179688 11.128906 -7.988281 10.765625 -8.6875 C 10.398438 -9.382812 9.894531 -9.914062 9.25 -10.28125 C 8.601562 -10.65625 7.863281 -10.84375 7.03125 -10.84375 C 6.207031 -10.84375 5.472656 -10.65625 4.828125 -10.28125 C 4.179688 -9.914062 3.675781 -9.382812 3.3125 -8.6875 C 2.945312 -7.988281 2.765625 -7.179688 2.765625 -6.265625 C 2.765625 -5.347656 2.945312 -4.535156 3.3125 -3.828125 C 3.675781 -3.128906 4.179688 -2.59375 4.828125 -2.21875 C 5.472656 -1.84375 6.207031 -1.65625 7.03125 -1.65625 Z M 7.03125 -1.65625 "/></g></g></g><g fill="#0e1446" fill-opacity="1"><g transform="translate(107.369271, 285.764136)"><g><path d="M 7.828125 0 L 4.953125 -4.984375 L 3.390625 -4.984375 L 3.390625 0 L 1.34375 0 L 1.34375 -12.484375 L 5.65625 -12.484375 C 6.613281 -12.484375 7.421875 -12.3125 8.078125 -11.96875 C 8.742188 -11.632812 9.242188 -11.1875 9.578125 -10.625 C 9.910156 -10.0625 10.078125 -9.4375 10.078125 -8.75 C 10.078125 -7.925781 9.835938 -7.179688 9.359375 -6.515625 C 8.890625 -5.859375 8.164062 -5.410156 7.1875 -5.171875 L 10.265625 0 Z M 3.390625 -6.625 L 5.65625 -6.625 C 6.414062 -6.625 6.988281 -6.816406 7.375 -7.203125 C 7.769531 -7.585938 7.96875 -8.101562 7.96875 -8.75 C 7.96875 -9.394531 7.773438 -9.898438 7.390625 -10.265625 C 7.015625 -10.628906 6.4375 -10.8125 5.65625 -10.8125 L 3.390625 -10.8125 Z M 3.390625 -6.625 "/></g></g></g><g fill="#0e1446" fill-opacity="1"><g transform="translate(119.15665, 285.764136)"><g/></g></g></svg>